<svg width="74" height="65" viewBox="0 0 74 65" fill="none" xmlns="http://www.w3.org/2000/svg">
<path d="M57.3781 1.4776C56.5404 0.89258 55.6393 0.397866 54.699 0C54.9237 1.37094 55.3004 2.73075 55.9318 3.97211C56.2955 4.69717 56.8022 5.381 57.5237 5.77887C58.0049 6.05306 58.6252 6.19048 59.1365 5.91433C59.3578 6.27358 59.636 6.59227 59.9181 6.90376C60.6141 7.67266 61.2625 8.4854 61.8586 9.33479C61.478 9.1568 61.0816 9.01676 60.6755 8.91075C60.6859 8.30545 60.2028 7.84214 59.7039 7.58366C58.9517 7.18252 58.0715 7.17598 57.2436 7.25254C56.1636 7.36117 55.1013 7.62881 54.0846 8.00836C55.1058 8.78511 56.223 9.45651 57.4408 9.87204C58.1322 10.1109 58.8969 10.2176 59.6086 10.0016C60.0565 9.87728 60.477 9.58346 60.6441 9.13455C61.1815 9.32825 61.6954 9.58346 62.1792 9.88644C62.2713 9.93814 62.3333 10.0252 62.3901 10.1109C63.1149 11.2305 63.7633 12.3999 64.3255 13.6099C64.1035 13.4574 63.8756 13.3135 63.6451 13.1734C63.6314 12.7736 63.4042 12.4137 63.0973 12.1702C62.6095 11.7711 61.9814 11.5728 61.3585 11.5348C59.8861 11.4635 58.4274 11.8149 57.0503 12.3116C57.969 13.0177 58.9739 13.623 60.0532 14.049C60.8191 14.348 61.6699 14.5515 62.4842 14.3323C62.9713 14.2185 63.4427 13.9102 63.6157 13.4208C63.9546 13.6635 64.27 13.9377 64.5697 14.2257C64.6297 14.2826 64.6604 14.3618 64.695 14.4351C65.3695 16.0187 65.9174 17.6566 66.3294 19.3279C66.1557 19.1911 65.9774 19.0589 65.7979 18.9294C65.8397 18.6015 65.7815 18.2593 65.587 17.9871C65.139 17.3229 64.366 16.9492 63.5974 16.8072C62.2315 16.5481 60.8211 16.639 59.4597 16.8805C60.3484 17.8274 61.3376 18.701 62.4855 19.32C63.1998 19.7159 64.0512 19.9509 64.8615 19.7467C65.2122 19.6649 65.5262 19.4509 65.7202 19.1453C65.9539 19.3495 66.1851 19.5582 66.3973 19.786C66.441 19.8331 66.4685 19.8887 66.4796 19.9541C66.8916 21.7537 67.1469 23.5879 67.2631 25.43C67.1436 25.309 67.0235 25.1886 66.9007 25.0714C67.0039 24.6939 66.9471 24.2842 66.7466 23.9492C66.3607 23.2856 65.6901 22.8328 64.9758 22.5861C63.7058 22.1293 62.3425 21.9768 60.9987 21.984C61.6575 23.0023 62.4241 23.9636 63.3526 24.7482C63.9193 25.2304 64.586 25.6427 65.3382 25.7291C65.854 25.8011 66.4423 25.6964 66.7858 25.271C66.9536 25.4935 67.1619 25.6931 67.282 25.947C67.3669 27.8094 67.2579 29.6809 66.9862 31.525C66.8779 31.3764 66.7799 31.2207 66.6813 31.0662C66.8485 30.7194 66.8387 30.3104 66.7055 29.9544C66.4613 29.2817 65.9317 28.7491 65.3271 28.3872C64.125 27.6706 62.761 27.2656 61.3905 27.0267C61.9742 28.397 62.7205 29.7365 63.8096 30.7692C64.3333 31.2455 65.0209 31.5956 65.7417 31.5708C66.0355 31.5669 66.3124 31.4432 66.5364 31.258C66.6637 31.5119 66.8126 31.7586 66.902 32.0295C66.6121 33.8899 66.1139 35.717 65.461 37.4825C65.4198 37.3392 65.3793 37.1959 65.3395 37.0526C65.6823 36.639 65.679 36.0527 65.5178 35.5645C65.2866 34.8041 64.7218 34.2073 64.1113 33.7276C63.1809 32.9875 62.1185 32.4267 61.0196 31.9837C61.2579 33.2669 61.6516 34.5371 62.2981 35.6757C62.6559 36.3131 63.1619 36.8955 63.8423 37.1926C64.2517 37.383 64.746 37.4288 65.1521 37.2057C65.1913 37.4746 65.2762 37.7469 65.254 38.0197C64.5716 39.7892 63.6915 41.4782 62.6833 43.0827C62.6729 42.9171 62.6618 42.7522 62.6494 42.5873C63.0176 42.3086 63.1632 41.8315 63.1482 41.3839C63.1489 40.5987 62.7741 39.871 62.2981 39.2676C61.5126 38.2645 60.5292 37.4282 59.4741 36.7214C59.463 38.0976 59.5766 39.4993 60.0376 40.8048C60.2922 41.539 60.7636 42.2405 61.4708 42.5978C61.7653 42.7516 62.1094 42.7791 62.43 42.7045C62.4078 43.0022 62.4789 43.334 62.3372 43.6088C61.301 45.1656 60.1139 46.6229 58.8015 47.9539C58.8211 47.7845 58.842 47.6163 58.8596 47.4475C59.3774 47.2158 59.6131 46.6386 59.6569 46.1033C59.7516 45.1957 59.3657 44.3332 58.9302 43.563C58.3954 42.6482 57.7418 41.8008 56.9929 41.0515C56.6847 42.3799 56.5201 43.7626 56.6905 45.1224C56.7754 45.8579 57.0595 46.5974 57.6086 47.1098C57.8841 47.3663 58.2491 47.5286 58.6304 47.5083C58.5612 47.793 58.5305 48.0966 58.396 48.3597C57.0581 49.6789 55.5844 50.8568 54.0259 51.9045C54.0996 51.7402 54.116 51.5347 54.2257 51.3954C54.7565 51.2318 55.0921 50.7331 55.2318 50.2181C55.4317 49.5696 55.3696 48.876 55.2083 48.2268C54.9106 47.0267 54.3706 45.8985 53.7275 44.8469C53.6942 44.7095 53.6027 44.8535 53.5884 44.9071C53.0575 46.0916 52.637 47.3454 52.5254 48.6456C52.4477 49.4335 52.5874 50.2875 53.0934 50.919C53.3043 51.1918 53.6204 51.3705 53.9619 51.4176C53.8332 51.6813 53.734 51.9666 53.5525 52.1996C51.9619 53.2283 50.2564 54.077 48.498 54.7779C48.5822 54.613 48.6684 54.4494 48.7546 54.2864C49.288 54.2923 49.7242 53.901 49.9782 53.4639C50.4366 52.7146 50.479 51.7991 50.4007 50.9464C50.304 49.8294 50.0259 48.7333 49.6406 47.6824C48.8728 48.6947 48.2107 49.8032 47.7934 51.0086C47.5603 51.6754 47.4493 52.4051 47.6178 53.1007C47.7321 53.5889 48.0226 54.0751 48.513 54.255C48.3596 54.4939 48.225 54.7576 48.0154 54.9519C46.2571 55.622 44.4242 56.0892 42.5705 56.4066C42.6815 56.2725 42.7899 56.1377 42.8989 56.0035C43.497 56.0906 44.0403 55.7091 44.3864 55.2543C44.9335 54.5691 45.0994 53.6752 45.1901 52.8252C45.2894 51.7899 45.2398 50.7449 45.0961 49.7162C44.1128 50.5551 43.2248 51.5256 42.5633 52.642C42.1422 53.3415 41.8705 54.185 42.0455 55.0036C42.1154 55.3825 42.3374 55.7306 42.6717 55.9283C42.4758 56.1069 42.3106 56.3229 42.0899 56.4721C41.3586 56.5977 40.6175 56.6599 39.8791 56.7247C39.5689 56.758 39.2418 56.6723 39.0067 56.4623C38.6998 56.1966 38.547 55.8079 38.408 55.4368C37.9555 55.9643 37.9444 56.7004 38.0116 57.3561C38.0991 58.1499 38.152 58.9515 38.0593 59.7473C38.4106 59.2139 38.5483 58.5569 38.9682 58.0668C39.1797 57.8129 39.531 57.9071 39.817 57.8934C40.3949 57.9078 40.9675 57.809 41.5114 57.6172C41.3044 58.0184 40.9532 58.4391 41.1131 58.9221C41.3051 59.5346 41.8288 59.9573 42.2799 60.382C43.1229 61.1483 44.0834 61.857 44.5979 62.9053C44.9296 63.5486 44.9786 64.292 44.8944 65C45.2483 64.0767 45.3344 62.9937 44.9055 62.0808C44.5065 61.2955 43.9195 60.63 43.3475 59.9691C43.0073 59.5621 42.641 59.138 42.5209 58.6067C42.4145 58.1525 42.5744 57.6866 42.8108 57.3012C43.4076 57.1965 44.0005 57.0695 44.5888 56.9242C44.7383 56.8856 44.8904 56.8542 45.0452 56.8595C45.5976 56.8654 46.1493 56.9242 46.69 57.0375C46.4941 57.6611 46.8192 58.3037 47.2495 58.7434C47.8934 59.4338 48.8192 59.744 49.7131 59.9521C50.9048 60.2119 52.1323 60.2989 53.3487 60.2433C52.6782 59.2728 51.9064 58.3652 51.0171 57.5878C50.2982 56.9694 49.4768 56.3844 48.5097 56.2705C47.8979 56.1802 47.1758 56.3013 46.7918 56.8366C46.4706 56.741 46.1461 56.6579 45.8157 56.6023C47.5055 56.1285 49.1503 55.4951 50.7304 54.7308C50.829 54.6817 50.9361 54.6516 51.0451 54.6378C51.5969 54.56 52.1551 54.5318 52.7108 54.5691C52.6814 55.2772 53.2168 55.8439 53.7901 56.1769C54.6892 56.7135 55.7731 56.7469 56.7911 56.7299C57.8397 56.6893 58.8844 56.531 59.8991 56.2666C58.983 55.3976 57.9644 54.6267 56.8479 54.0338C56.163 53.6818 55.4238 53.3768 54.6422 53.3755C54.0872 53.3703 53.4878 53.4874 53.0699 53.8787C52.9263 54.0044 52.8518 54.183 52.7519 54.342C52.3824 54.31 52.0135 54.2563 51.6406 54.2773C53.273 53.4272 54.8238 52.4201 56.2753 51.288C56.368 51.2115 56.477 51.1617 56.5906 51.129C57.083 50.9811 57.587 50.8692 58.0983 50.8156C58.178 51.4693 58.7552 51.9182 59.333 52.1368C60.253 52.5065 61.2716 52.3809 62.2164 52.1845C63.3487 51.9326 64.445 51.5269 65.4832 51.0099C64.3026 50.2973 63.0372 49.7011 61.6934 49.3759C60.8505 49.1659 59.9279 49.1089 59.1162 49.4682C58.6357 49.6671 58.193 50.0558 58.1048 50.5937C57.7424 50.5931 57.3814 50.631 57.0242 50.6925C58.4339 49.5251 59.747 48.2386 60.9269 46.8369C61.0039 46.7381 61.1051 46.6622 61.2168 46.6072C61.6543 46.3788 62.1081 46.1799 62.5788 46.0314C62.7277 46.4888 63.1332 46.8081 63.5752 46.9599C64.3914 47.2531 65.2938 47.1386 66.0956 46.8546C67.4642 46.3723 68.7166 45.6001 69.8514 44.703C68.4678 44.2246 67.0163 43.8974 65.5471 43.8922C64.7956 43.8955 64.0212 44.0381 63.3878 44.4628C62.9327 44.754 62.5351 45.2311 62.5494 45.8004C62.1975 45.8848 61.8469 45.979 61.5106 46.1171C62.667 44.6794 63.6771 43.1272 64.5638 41.5096C64.9373 41.0862 65.393 40.7407 65.854 40.4187C66.202 40.9991 66.9399 41.1588 67.568 41.1006C68.5592 41.0306 69.4211 40.4697 70.1844 39.8762C71.0881 39.1505 71.8958 38.3057 72.6016 37.3856C71.1227 37.2567 69.6104 37.2875 68.1668 37.6605C67.3284 37.8725 66.5018 38.3109 66.016 39.0504C65.7874 39.3854 65.683 39.8062 65.7711 40.2073C65.4956 40.3592 65.2259 40.5208 64.9719 40.7073C65.7802 39.089 66.4365 37.3974 66.9601 35.6672C67.252 35.1561 67.6353 34.6968 68.0532 34.2845C68.3711 34.594 68.8347 34.6968 69.2657 34.6529C70.029 34.5849 70.7335 34.1988 71.2905 33.6844C72.4416 32.6165 73.2898 31.2645 73.98 29.8635C72.8066 30.0016 71.6424 30.2594 70.537 30.6808C69.6411 31.0289 68.7264 31.4936 68.1713 32.3128C67.8142 32.8154 67.5987 33.513 67.9069 34.0915C67.6601 34.3081 67.4159 34.5292 67.2017 34.7792C67.6294 33.1505 67.9173 31.4851 68.0649 29.8079C68.0871 29.607 68.076 29.3969 68.1609 29.2098C68.3725 28.6928 68.6343 28.1961 68.9451 27.7328C69.4479 28.058 70.0962 27.9416 70.5997 27.6811C71.3251 27.3192 71.854 26.6675 72.2471 25.9738C72.9372 24.756 73.3799 23.4086 73.6646 22.0416C72.441 22.501 71.2631 23.1044 70.2164 23.8909C69.5595 24.3896 68.9431 24.9949 68.6428 25.7808C68.4149 26.3553 68.3516 27.0837 68.7714 27.5875C68.5474 27.8715 68.3339 28.1641 68.1609 28.4821C68.2477 26.6923 68.1465 24.8947 67.8782 23.1233C67.8351 22.9015 67.903 22.681 67.948 22.465C68.0414 22.0475 68.17 21.6385 68.3196 21.238C68.7205 21.3755 69.1619 21.2996 69.5256 21.0941C70.1341 20.7564 70.5918 20.1871 70.8824 19.5609C71.188 18.8823 71.3793 18.1572 71.5118 17.4269C71.6705 16.5212 71.7521 15.5999 71.7306 14.6805C70.68 15.3597 69.6947 16.1528 68.8569 17.086C68.2588 17.7587 67.7136 18.5407 67.5935 19.4562C67.5047 20.053 67.6092 20.7571 68.1256 21.1386C67.9552 21.4514 67.8246 21.7838 67.7162 22.1228C67.3682 20.2761 66.8635 18.4589 66.2073 16.6986C66.1296 16.0311 66.2438 15.3512 66.3816 14.6968C67.043 14.7688 67.6111 14.2963 67.9487 13.7715C68.4926 12.9679 68.5827 11.9667 68.599 11.0231C68.5886 9.83736 68.4253 8.65358 68.1289 7.50644C67.1247 8.57178 66.2347 9.77061 65.6399 11.1154C65.252 11.9667 65.0809 12.9804 65.4381 13.871C65.5674 14.2178 65.8403 14.4789 66.159 14.6536C66.0434 15.0535 65.9343 15.4572 65.8886 15.8727C65.1691 14.1079 64.3085 12.4006 63.3016 10.7829C63.2017 10.6213 63.2109 10.423 63.1854 10.2411C63.1397 9.8354 63.1449 9.42706 63.1449 9.02003C63.6053 9.02331 64.0297 8.76221 64.2941 8.3951C64.8341 7.67462 64.9732 6.72904 64.887 5.85085C64.761 4.38634 64.3118 2.96436 63.7104 1.63007C62.8988 2.87733 62.2145 4.23387 61.8697 5.68922C61.6745 6.50458 61.668 7.40501 62.0486 8.16868C62.2269 8.53579 62.5305 8.84662 62.921 8.98012C62.874 9.35115 62.8433 9.72546 62.855 10.0991C62.1427 8.98797 61.3363 7.93768 60.4789 6.93517C60.1237 6.52225 59.764 6.10737 59.3343 5.76905C59.5348 5.53806 59.6726 5.24947 59.6837 4.9406C59.7411 4.16319 59.3879 3.41458 58.9047 2.82629C58.4594 2.30998 57.9331 1.86958 57.3781 1.4776Z" fill="#FFA800"/>
<path d="M19.2747 0C18.1484 0.480972 17.0684 1.08562 16.1027 1.8434C15.4139 2.40159 14.7354 3.04812 14.439 3.90864C14.217 4.51002 14.1719 5.26976 14.6388 5.76905C14.1667 6.14271 13.7762 6.6047 13.3851 7.0595C12.5618 8.02341 11.8089 9.0449 11.1031 10.0978C11.1312 9.72546 11.0965 9.35181 11.0528 8.98142C11.5928 8.79427 11.9349 8.27927 12.0884 7.75053C12.3594 6.9031 12.2137 5.99351 11.9624 5.16113C11.5804 3.90602 10.981 2.72486 10.2621 1.63138C9.76126 2.72682 9.38516 3.88443 9.17949 5.07279C9.02278 6.0367 8.96206 7.0824 9.42108 7.9776C9.67965 8.52597 10.1818 9.02854 10.8256 9.02265C10.8301 9.58608 10.8386 10.1626 10.7061 10.7123C9.69466 12.3561 8.80796 14.0784 8.08514 15.8695C8.0316 15.4539 7.93757 15.0443 7.80633 14.6464C8.46255 14.3559 8.71916 13.5889 8.72373 12.9189C8.75899 12.2082 8.52915 11.5191 8.22879 10.8857C7.66921 9.70779 6.88437 8.65161 6.0166 7.68509C5.95131 7.62358 5.89515 7.52607 5.7972 7.5156C5.79916 7.61507 5.78937 7.71323 5.76782 7.81073C5.50469 8.94805 5.3519 10.1174 5.37932 11.2862C5.4074 12.1565 5.53407 13.0681 6.04206 13.7997C6.37833 14.3166 6.94183 14.7662 7.59216 14.7007C7.72014 15.2753 7.79589 15.8636 7.79458 16.4532C7.80568 16.6155 7.74169 16.7666 7.68619 16.9152C7.06132 18.5969 6.60425 20.3376 6.25492 22.0966C6.13674 21.7694 6.00942 21.4455 5.85206 21.1353C6.35744 20.7473 6.4717 20.0543 6.37702 19.4575C6.25688 18.523 5.69143 17.7292 5.07896 17.0454C4.24122 16.1293 3.27094 15.3375 2.22427 14.6733C2.23471 15.8224 2.33135 16.9754 2.59775 18.0944C2.79037 18.8495 3.02805 19.6165 3.49883 20.2486C3.86448 20.7211 4.3457 21.1477 4.94315 21.2806C5.17886 21.3408 5.42111 21.3009 5.65094 21.2394C5.84748 21.7583 6.0068 22.2923 6.09887 22.8406C6.12107 22.9767 6.0943 23.1148 6.07471 23.2509C5.81483 24.97 5.7404 26.7139 5.80374 28.4507C5.62157 28.149 5.41719 27.8617 5.20106 27.5836C5.5086 27.2211 5.56345 26.7139 5.46812 26.2617C5.30684 25.434 4.77208 24.7305 4.1361 24.2011C3.00977 23.2483 1.67905 22.5632 0.306553 22.0416C0.550755 23.2339 0.928162 24.402 1.46489 25.4948C1.88343 26.3167 2.40775 27.1419 3.23177 27.6052C3.76392 27.918 4.47107 28.0842 5.02738 27.7374C5.37018 28.2609 5.69077 28.8152 5.87099 29.4172C6.01137 31.2246 6.31239 33.0189 6.76423 34.774C6.55528 34.524 6.31239 34.3067 6.06427 34.096C6.29868 33.6537 6.23403 33.1118 6.01203 32.678C5.65813 31.9451 4.99734 31.4098 4.27975 31.0558C2.94512 30.3883 1.47207 30.0474 -0.000984192 29.8628C0.528557 30.9772 1.18608 32.0354 1.98855 32.9725C2.46651 33.5149 2.99475 34.0417 3.65488 34.3552C4.35223 34.6902 5.30162 34.8571 5.92388 34.2845C6.33197 34.6974 6.71133 35.1489 7.00581 35.6502C7.53405 37.3882 8.18635 39.091 9.00711 40.7119C8.74984 40.5267 8.48018 40.3598 8.20202 40.208C8.31433 39.7224 8.11975 39.2258 7.81352 38.8528C7.32707 38.2494 6.61209 37.8725 5.8723 37.6794C4.40969 37.2881 2.87329 37.2541 1.37282 37.3869C2.1211 38.3659 2.9843 39.2617 3.96307 40.0117C4.47107 40.3834 5.00322 40.7439 5.6072 40.9383C6.2151 41.1326 6.902 41.1968 7.50337 40.9474C7.76259 40.8447 7.965 40.6438 8.11779 40.4161C8.584 40.7524 9.06457 41.0953 9.43022 41.5436C10.3058 43.1488 11.312 44.6853 12.4573 46.1112C12.1204 45.9855 11.7769 45.8782 11.4243 45.8049C11.4348 45.2474 11.0561 44.7723 10.6108 44.4805C9.91144 44.0008 9.04106 43.8732 8.20986 43.8935C6.8132 43.9334 5.43482 44.2442 4.11978 44.7056C5.08223 45.4627 6.12629 46.1262 7.25132 46.6131C7.94998 46.9043 8.69043 47.1589 9.45699 47.1288C10.0231 47.1117 10.6192 46.9665 11.0463 46.5745C11.2115 46.4305 11.3146 46.2336 11.3878 46.0314C11.9278 46.2113 12.4684 46.4201 12.9464 46.7315C14.1628 48.1633 15.4961 49.4976 16.947 50.6912C16.5905 50.6323 16.23 50.5911 15.8683 50.595C15.7958 50.1762 15.5079 49.8242 15.1442 49.6174C14.3992 49.1757 13.4824 49.1279 12.6493 49.2974C11.1677 49.5873 9.77759 50.2338 8.49128 51.0106C9.68095 51.6015 10.947 52.0576 12.2581 52.2794C13.139 52.428 14.091 52.4404 14.9019 52.017C15.3805 51.786 15.8121 51.3613 15.8729 50.8097C16.4533 50.8947 17.0449 50.9877 17.5888 51.2141C19.0795 52.3612 20.6518 53.4095 22.3247 54.272C21.9518 54.2687 21.579 54.2943 21.2094 54.3505C21.0586 53.9167 20.6596 53.6248 20.232 53.5005C19.3792 53.2342 18.452 53.4154 17.6567 53.7806C16.3221 54.3767 15.1331 55.266 14.074 56.2672C15.5053 56.6304 16.9966 56.8254 18.4723 56.69C19.2937 56.6226 20.1242 56.3425 20.7289 55.764C21.0508 55.4532 21.2826 55.0272 21.2597 54.5691C21.8304 54.5325 22.405 54.5586 22.9698 54.6457C23.18 54.6718 23.3576 54.7929 23.547 54.8773C25.0324 55.5755 26.5741 56.1547 28.1529 56.6042C27.8238 56.6579 27.4993 56.739 27.1807 56.8372C26.8228 56.3366 26.1588 56.1939 25.579 56.2574C24.7752 56.3196 24.0485 56.724 23.421 57.2082C22.3279 58.053 21.4086 59.1086 20.6244 60.2426C22.117 60.3022 23.6384 60.1844 25.0671 59.727C25.8846 59.4744 26.6655 58.9849 27.1095 58.2343C27.3269 57.877 27.3929 57.4392 27.2871 57.0342C28.0608 56.9079 28.8764 56.7417 29.6429 56.9877C30.1496 57.1094 30.6609 57.2095 31.1721 57.3077C31.4124 57.7239 31.5724 58.2232 31.4281 58.7002C31.2374 59.3134 30.7758 59.7826 30.371 60.2616C29.893 60.8139 29.432 61.3898 29.086 62.0363C28.64 62.955 28.7138 64.059 29.0781 64.9921C28.9854 64.2402 29.0572 63.4471 29.4386 62.7797C30.1248 61.5213 31.3994 60.7733 32.3481 59.7433C32.6184 59.4417 32.892 59.087 32.8979 58.6629C32.8985 58.2683 32.6289 57.9542 32.4565 57.6212C32.7973 57.7101 33.131 57.8371 33.4849 57.8607C33.8773 57.9052 34.2717 57.8862 34.6648 57.8947C34.8606 57.9006 35.0076 58.0557 35.1159 58.2036C35.4444 58.6832 35.5933 59.2604 35.9158 59.744C35.8185 59.0163 35.861 58.2814 35.9413 57.5551C36.0222 56.8333 36.0549 56.0245 35.5691 55.427C35.4228 55.8033 35.272 56.2038 34.956 56.4721C34.7314 56.6599 34.4323 56.7502 34.1411 56.7273C33.383 56.671 32.6269 56.5859 31.8734 56.4799C31.6749 56.3045 31.4771 56.1272 31.3027 55.9263C31.8695 55.6011 32.0255 54.8839 31.97 54.2772C31.9158 53.4782 31.513 52.761 31.0735 52.1125C30.4539 51.218 29.7017 50.4203 28.8783 49.7123C28.7183 50.8129 28.6798 51.9359 28.8052 53.0424C28.9018 53.8192 29.0833 54.6221 29.5802 55.2477C29.9257 55.7018 30.4669 56.0925 31.0657 56.0015C31.1793 56.1344 31.2897 56.2705 31.3987 56.4073C29.6246 56.1043 27.8747 55.6541 26.1816 55.0429C25.799 54.9572 25.6671 54.5403 25.4556 54.2576C25.8565 54.1091 26.1418 53.7518 26.2757 53.3539C26.5336 52.6446 26.4565 51.8573 26.2241 51.1519C25.8434 49.9616 25.2016 48.8733 24.4729 47.8656C24.4174 47.8021 24.373 47.6941 24.2744 47.6994C24.2783 47.9049 24.179 48.0894 24.1229 48.2824C23.7638 49.4361 23.5098 50.6395 23.5463 51.8541C23.5705 52.5778 23.7899 53.329 24.2966 53.863C24.5369 54.1228 24.8764 54.2825 25.2296 54.2936C25.3054 54.4539 25.3877 54.611 25.4686 54.7693C23.7187 54.0868 22.0348 53.2322 20.4494 52.2238C20.2326 52.0046 20.1497 51.6859 20.0106 51.4156C20.5722 51.3574 20.9829 50.8915 21.1951 50.3994C21.53 49.671 21.5033 48.8419 21.3779 48.0678C21.1925 46.9213 20.8066 45.8128 20.3129 44.7645C19.7488 45.5988 19.3198 46.5221 18.9835 47.4703C18.7315 48.2471 18.5141 49.0749 18.6629 49.8948C18.7432 50.3477 18.9241 50.8025 19.2636 51.1225C19.4027 51.2599 19.5934 51.3162 19.7618 51.4039C19.8389 51.5642 19.8879 51.7369 19.9486 51.9044C18.3965 50.8673 16.9339 49.6933 15.6006 48.3852C15.4295 48.1306 15.4256 47.8002 15.3388 47.5109C15.9865 47.5449 16.5134 47.0646 16.8203 46.5392C17.2558 45.8219 17.3348 44.9614 17.3505 44.1415C17.3551 43.0984 17.2199 42.0566 16.9783 41.0436C15.9493 42.1181 15.0155 43.3327 14.4919 44.7396C14.2784 45.3698 14.217 46.0817 14.4547 46.7145C14.5722 47.0306 14.802 47.3074 15.1141 47.4448C15.1311 47.615 15.1514 47.7845 15.1703 47.9552C13.8553 46.6183 12.6649 45.1571 11.6248 43.5957C11.5007 43.3196 11.5614 42.9963 11.5242 42.7005C11.8631 42.7823 12.2275 42.7509 12.535 42.5814C13.2291 42.2084 13.6986 41.5135 13.9434 40.778C14.3894 39.481 14.5206 38.0917 14.4899 36.7267C13.8768 37.1337 13.297 37.5911 12.757 38.0917C12.1739 38.6486 11.6137 39.2474 11.2167 39.9554C10.902 40.5326 10.7335 41.2177 10.8732 41.8701C10.9314 42.1574 11.105 42.4028 11.3225 42.5926C11.3127 42.7418 11.3035 42.891 11.2911 43.0408C10.9882 42.6495 10.7635 42.2019 10.5082 41.7785C9.82852 40.5771 9.22454 39.3305 8.72634 38.0426C8.68324 37.7645 8.78119 37.4831 8.81971 37.2076C9.20038 37.417 9.66006 37.3876 10.0512 37.226C10.7485 36.9472 11.28 36.3681 11.645 35.7255C12.3117 34.5757 12.7061 33.2853 12.9555 31.985C11.9917 32.3652 11.0678 32.8527 10.2216 33.4521C9.53404 33.956 8.84714 34.5436 8.52719 35.359C8.30388 35.8969 8.2412 36.5755 8.63231 37.0539C8.59248 37.1952 8.552 37.3366 8.50956 37.4779C7.86249 35.7333 7.37539 33.9266 7.07503 32.0897C7.10964 31.7893 7.30879 31.5276 7.43546 31.256C7.86379 31.646 8.50042 31.6323 9.01756 31.453C9.74755 31.2213 10.3195 30.6762 10.7949 30.0958C11.5438 29.1718 12.1262 28.1195 12.5827 27.0221C11.5262 27.208 10.4821 27.4959 9.50139 27.9363C8.79229 28.2681 8.07012 28.662 7.60784 29.3171C7.24676 29.8052 7.00647 30.4851 7.29442 31.0656C7.18995 31.2233 7.08809 31.383 6.98689 31.5433C6.71395 29.6881 6.60621 27.8068 6.69044 25.9326C6.82169 25.6892 7.01561 25.4876 7.18864 25.2736C7.55756 25.7304 8.20072 25.8089 8.74462 25.7134C9.50335 25.5975 10.1563 25.1506 10.725 24.6585C11.6039 23.8896 12.3404 22.9663 12.9705 21.9847C11.6953 21.9729 10.4064 22.1208 9.18993 22.5167C8.4188 22.7647 7.65942 23.2032 7.24153 23.923C7.03324 24.2613 6.96272 24.6808 7.07568 25.0649C6.95554 25.1873 6.83409 25.309 6.71133 25.4294C6.82756 23.5546 7.08286 21.6837 7.52165 19.8566C7.73973 19.5968 7.99634 19.3691 8.25295 19.1473C8.59379 19.7035 9.30355 19.8606 9.91144 19.8148C10.7237 19.7683 11.4589 19.3698 12.1289 18.9379C13.0058 18.3568 13.8024 17.6553 14.5082 16.8766C13.1657 16.6462 11.7795 16.55 10.4318 16.7961C9.71229 16.9217 8.99666 17.2384 8.5174 17.8065C8.2536 18.1107 8.09886 18.523 8.17721 18.9274C7.99373 19.057 7.81482 19.1924 7.63918 19.3325C8.06163 17.6448 8.60685 15.986 9.29898 14.3886C9.33097 14.3199 9.37015 14.2551 9.425 14.2034C9.71621 13.9214 10.0264 13.6603 10.3515 13.4181C10.5585 13.996 11.1599 14.3009 11.7332 14.3834C12.5095 14.5214 13.2898 14.2963 14.0074 14.0143C15.0528 13.5896 16.0276 12.9987 16.9222 12.3122C15.5196 11.8044 14.0283 11.4498 12.5278 11.5401C11.8154 11.6068 11.075 11.8738 10.6081 12.4405C10.4318 12.6427 10.343 12.9051 10.328 13.1708C10.0956 13.3115 9.86704 13.4587 9.64373 13.6138C10.2353 12.3554 10.902 11.1285 11.679 9.97543C12.1785 9.60898 12.7531 9.35377 13.3296 9.13324C13.5288 9.69732 14.1217 9.98525 14.676 10.0749C15.4915 10.2241 16.311 9.98001 17.0606 9.67442C18.0727 9.25103 19.0194 8.67648 19.8866 8.00639C18.6166 7.54112 17.2767 7.22179 15.9192 7.21393C15.1958 7.21459 14.4436 7.38473 13.867 7.8441C13.5392 8.09801 13.2885 8.48409 13.2983 8.91206C12.8909 9.01283 12.4952 9.15811 12.1132 9.33283C12.7087 8.48998 13.3505 7.6792 14.0433 6.91488C14.33 6.59947 14.6101 6.27489 14.836 5.91236C15.2983 6.16823 15.8663 6.07661 16.3182 5.84561C17.0612 5.48636 17.5986 4.81692 17.9741 4.0971C18.6499 2.82432 19.0377 1.41609 19.2747 0Z" fill="#FFA800"/>
<path d="M49.5837 18.0293C49.5837 18.0211 49.5837 18.013 49.5756 18.013C49.5756 17.9967 49.5674 17.9886 49.5674 17.9723C49.5674 17.9642 49.5593 17.9479 49.5593 17.9398C49.5593 17.9317 49.5512 17.9235 49.5512 17.9154C49.5349 17.8747 49.5186 17.8422 49.4942 17.8097L44.2078 10.0426C44.0939 9.87183 43.9068 9.77423 43.7035 9.77423H38.5309H35.4485H30.2759C30.0725 9.77423 29.8855 9.87183 29.7716 10.0426L24.4851 17.8097C24.4607 17.8422 24.4445 17.8829 24.4282 17.9154C24.4282 17.9235 24.4201 17.9317 24.4201 17.9398C24.4119 17.9479 24.4119 17.9642 24.4119 17.9723C24.4119 17.9886 24.4038 17.9967 24.4038 18.013C24.4038 18.0211 24.4038 18.0293 24.3957 18.0293C24.3875 18.0699 24.3794 18.1106 24.3794 18.1513V36.963C24.3794 37.2965 24.6559 37.573 24.9894 37.573H48.99C49.3234 37.573 49.6 37.2965 49.6 36.963V18.1513C49.5918 18.1106 49.5918 18.0699 49.5837 18.0293ZM47.827 17.5413H39.946L39.2059 10.9942H43.3701L47.827 17.5413ZM35.1719 18.7612H38.7912V23.2344L37.3353 22.2097C37.2296 22.1365 37.1076 22.0958 36.9856 22.0958C36.8636 22.0958 36.7416 22.1365 36.6359 22.2097L35.1801 23.2344V18.7612H35.1719ZM37.9778 10.9942L38.718 17.5413H35.2451L35.9853 10.9942H37.9778ZM30.6012 10.9942H34.7653L34.0252 17.5413H26.1443L30.6012 10.9942ZM48.3719 36.353H25.5994V18.7612H33.9601V24.4056C33.9601 24.6333 34.0903 24.8448 34.2854 24.9505C34.4888 25.0562 34.7328 25.04 34.9198 24.9098L36.9856 23.454L39.0514 24.9098C39.1571 24.983 39.2791 25.0237 39.4011 25.0237C39.4987 25.0237 39.5963 24.9993 39.6858 24.9586C39.8891 24.8529 40.0111 24.6414 40.0111 24.4137V18.7694H48.3719V36.353Z" fill="#444444"/>
<path d="M32.5129 29.7246H28.1862C27.8527 29.7246 27.5762 30.0011 27.5762 30.3346C27.5762 30.668 27.8527 30.9446 28.1862 30.9446H32.5129C32.8464 30.9446 33.1229 30.668 33.1229 30.3346C33.1229 30.0011 32.8464 29.7246 32.5129 29.7246Z" fill="#444444"/>
<path d="M30.3495 32.2864H28.1862C27.8527 32.2864 27.5762 32.563 27.5762 32.8964C27.5762 33.2299 27.8527 33.5064 28.1862 33.5064H30.3495C30.683 33.5064 30.9595 33.2299 30.9595 32.8964C30.9595 32.563 30.683 32.2864 30.3495 32.2864Z" fill="#444444"/>
</svg>
