<svg width="26" height="59" viewBox="0 0 26 59" fill="none" xmlns="http://www.w3.org/2000/svg">
<rect width="52" height="26" transform="matrix(0 -1 -1 0 26 52)" fill="#D53A3A"/>
<path d="M13 51.0013C12.3302 51.4023 11.6461 51.795 10.9714 52.1932C7.31454 54.3346 3.65845 56.4765 0.00132942 58.6181C-0.000226021 56.0786 -0.000743866 53.539 0.00158882 50.9995C4.33448 51.0014 8.66737 50.9979 13 51.0013Z" fill="#D53A3A"/>
<path d="M13 51.0013C13.6698 51.4023 14.3539 51.795 15.0286 52.1932C18.6855 54.3346 22.3415 56.4765 25.9987 58.6181C26.0002 56.0786 26.0007 53.539 25.9984 50.9995C21.6655 51.0014 17.3326 50.9979 13 51.0013Z" fill="#D53A3A"/>
<path d="M17 39.5134L12.74 36.9094L8.42 39.5254V37.1374L10.184 36.2014L11.288 35.6734V35.6494C10.92 35.4974 10.552 35.3214 10.184 35.1214L8.42 34.1734V31.7854L12.74 34.4134L17 31.7974V34.1374L15.2 35.1214L14.132 35.6494V35.6734C14.484 35.8254 14.84 36.0014 15.2 36.2014L17 37.1854V39.5134ZM17 29.5992H8.42V27.4992H12.428L13.892 27.5952V27.5712C13.292 27.3152 12.804 27.0752 12.428 26.8512L8.42 24.4752V22.3512H17V24.4512H13.004L11.54 24.3552V24.3792C12.14 24.6352 12.628 24.8752 13.004 25.0992L17 27.4872V29.5992ZM17 17.4923H10.22V20.0963H8.42V12.7883H10.22V15.3923H17V17.4923Z" fill="white"/>
</svg>
