<svg width="62" height="36" viewBox="0 0 62 36" fill="none" xmlns="http://www.w3.org/2000/svg">
<g clip-path="url(#clip0)">
<path fill-rule="evenodd" clip-rule="evenodd" d="M43.3796 17.9856V8.99282C43.3796 4.02623 47.3876 0 52.3318 0H61.284V8.99282C61.284 13.7932 57.54 17.7149 52.8248 17.9722L52.4965 17.9901V15.5874L52.7867 15.5674C56.1975 15.3329 58.8923 12.4788 58.8923 8.99282V4.63506L45.6019 17.9856H43.3796ZM57.7321 2.40261H52.3318C48.7085 2.40261 45.7712 5.35314 45.7712 8.99282V14.4177L57.7321 2.40261ZM0 0.0792546V35.7457H7.97622V33.1721H2.98894V0.0792546H0ZM9.42385 23.4784V35.7457H12.4128V23.4784H9.42385ZM14.3291 29.5862C14.3291 27.7905 14.9325 26.292 16.1395 25.0912C17.3578 23.8788 18.8893 23.2725 20.7339 23.2725C22.6354 23.2725 24.2011 23.8159 25.4309 24.9023L23.9962 27.15C23.6431 26.8297 23.1878 26.561 22.6298 26.3435C22.0718 26.1263 21.5368 26.0177 21.0243 26.0177C19.8173 26.0177 18.9121 26.3493 18.3086 27.0126C17.7165 27.6648 17.4205 28.4882 17.4205 29.4834C17.4205 30.6157 17.7564 31.5192 18.4282 32.1941C19.1114 32.869 19.9426 33.2065 20.9218 33.2065C21.8099 33.2065 22.6354 32.909 23.3983 32.3141V31.3707H21.6733V28.8143H26.0457V35.7457H23.5521V35.4025L23.5692 34.8877H23.535C23.1707 35.208 22.6924 35.4654 22.1003 35.6599C21.5197 35.8543 20.9275 35.9516 20.324 35.9516C18.6844 35.9516 17.2725 35.3739 16.0882 34.2186C14.9154 33.0635 14.3291 31.5192 14.3291 29.5862ZM28.1881 23.4784V35.7457H36.079V33.1721H31.1771V30.8559H34.9005V28.2823H31.1771V26.052H35.8399V23.4784H28.1881ZM37.9957 35.7457V23.4784H42.2484C43.3301 23.4784 44.1215 23.5757 44.6226 23.7699C45.3284 24.0445 45.8808 24.4905 46.2793 25.1083C46.6777 25.7146 46.877 26.4579 46.877 27.3387C46.877 28.025 46.7176 28.6827 46.3988 29.3117C46.08 29.9294 45.6301 30.3869 45.0495 30.6842V30.7185C45.1634 30.8673 45.3171 31.1133 45.5107 31.4563L47.8848 35.7457H44.5542L42.385 31.6109H40.9846V35.7457H37.9957ZM40.9846 29.0373H42.2826C42.7722 29.0373 43.1536 28.9057 43.4269 28.6425C43.7003 28.3796 43.8368 28.0078 43.8368 27.5274C43.8368 26.8525 43.5977 26.418 43.1194 26.2235C42.8577 26.1091 42.4818 26.052 41.9922 26.052H40.9846V29.0373ZM50.2314 25.074C49.0357 26.2634 48.438 27.7504 48.438 29.5347C48.438 31.3649 49.0357 32.8918 50.2314 34.1158C51.427 35.3396 52.9583 35.9516 54.8258 35.9516C56.693 35.9516 58.2246 35.3396 59.4202 34.1158C60.6158 32.8918 61.2135 31.3649 61.2135 29.5347C61.2135 27.7504 60.6158 26.2634 59.4202 25.074C58.2246 23.873 56.693 23.2725 54.8258 23.2725C52.9583 23.2725 51.427 23.873 50.2314 25.074ZM52.4516 32.1598C51.8368 31.4621 51.5293 30.5872 51.5293 29.5347C51.5293 28.5281 51.8368 27.6933 52.4516 27.0298C53.078 26.3551 53.8693 26.0177 54.8258 26.0177C55.7823 26.0177 56.5678 26.3551 57.1828 27.0298C57.8089 27.6933 58.1222 28.5281 58.1222 29.5347C58.1222 30.5872 57.8089 31.4621 57.1828 32.1598C56.5678 32.8574 55.7823 33.2065 54.8258 33.2065C53.8693 33.2065 53.078 32.8574 52.4516 32.1598Z" fill="#FFA800"/>
</g>
<defs>
<clipPath id="clip0">
<rect width="61.3771" height="36" fill="white"/>
</clipPath>
</defs>
</svg>
