<svg width="12" height="9" viewBox="0 0 12 9" fill="none" xmlns="http://www.w3.org/2000/svg">
<path d="M10.8081 1.92986C11.0374 1.68829 11.0612 1.31582 10.8795 1.04706C10.8792 1.04042 10.8782 1.03585 10.8769 1.03378C10.8731 1.02867 10.8674 1.02145 10.8656 1.01925L10.8621 1.01519L10.8604 1.01327L10.8578 1.01041L10.8567 1.00928L10.8553 1.00777L10.8083 0.958052L10.7612 0.908419L10.7597 0.90693L10.7587 0.905824L10.7559 0.903059L10.7541 0.901242L10.7502 0.897497C10.748 0.895526 10.741 0.889304 10.736 0.885155C10.7339 0.883645 10.7292 0.882444 10.7226 0.881736C10.4588 0.683438 10.0862 0.709009 9.8504 0.958449L9.85032 0.958537L4.08247 7.06701L1.64928 4.50964C1.64918 4.50953 1.64907 4.50941 1.64896 4.5093C1.38624 4.23171 0.953928 4.23182 0.691345 4.50964C0.436335 4.77945 0.436028 5.21132 0.691565 5.48099L0.691925 5.48137L3.60567 8.54346C3.60571 8.5435 3.60575 8.54355 3.60579 8.54359C3.86679 8.81885 4.30263 8.8188 4.56357 8.54346L4.56388 8.54312L10.8079 1.93003C10.808 1.92997 10.808 1.92991 10.8081 1.92986ZM10.6267 1.13017L10.7994 0.966906L10.6267 1.13017Z" fill="#FFA800" stroke="#FFA800" stroke-width="0.5"/>
</svg>
