<svg width="160" height="139" viewBox="0 0 160 139" fill="none" xmlns="http://www.w3.org/2000/svg">
<g clip-path="url(#clip0)">
<path d="M150.301 62.2611V68.5386C150.292 83.0947 145.498 97.258 136.634 108.916C127.77 120.574 115.312 129.103 101.115 133.23C86.9191 137.357 71.7459 136.861 57.8594 131.817C43.9729 126.773 32.1167 117.45 24.0593 105.239C16.0019 93.0282 12.1748 78.5828 13.1488 64.0588C14.1229 49.5344 19.8459 35.7088 29.4643 24.6439C39.0827 13.5789 52.0812 5.86746 66.5211 2.65962C80.9611 -0.548221 96.0691 0.919407 109.591 6.84361" stroke="#555555" stroke-width="3" stroke-linecap="round"/>
<path d="M158.741 6.37012L82.8039 82.3076L62.0938 61.5976" stroke="#FFA800" stroke-width="3" stroke-linecap="round" stroke-linejoin="round"/>
</g>
<defs>
<clipPath id="clip0">
<rect width="160" height="139" fill="white"/>
</clipPath>
</defs>
</svg>
