<svg width="74" height="65" viewBox="0 0 74 65" fill="none" xmlns="http://www.w3.org/2000/svg">
<path d="M57.3786 1.4776C56.5408 0.89258 55.6398 0.397866 54.6995 0C54.9241 1.37094 55.3009 2.73075 55.9323 3.97211C56.296 4.69717 56.8027 5.381 57.5242 5.77887C58.0054 6.05306 58.6257 6.19048 59.137 5.91433C59.3583 6.27358 59.6365 6.59227 59.9186 6.90376C60.6146 7.67266 61.263 8.4854 61.8591 9.33479C61.4784 9.1568 61.0821 9.01676 60.676 8.91075C60.6864 8.30545 60.2032 7.84214 59.7044 7.58366C58.9522 7.18252 58.072 7.17598 57.2441 7.25254C56.1641 7.36117 55.1017 7.62881 54.0851 8.00836C55.1063 8.78511 56.2235 9.45651 57.4413 9.87204C58.1327 10.1109 58.8973 10.2176 59.6091 10.0016C60.057 9.87728 60.4775 9.58346 60.6446 9.13455C61.182 9.32825 61.6959 9.58346 62.1797 9.88644C62.2718 9.93814 62.3338 10.0252 62.3906 10.1109C63.1154 11.2305 63.7638 12.3999 64.326 13.6099C64.104 13.4574 63.8761 13.3135 63.6456 13.1734C63.6319 12.7736 63.4046 12.4137 63.0978 12.1702C62.61 11.7711 61.9819 11.5728 61.359 11.5348C59.8866 11.4635 58.4279 11.8149 57.0508 12.3116C57.9695 13.0177 58.9744 13.623 60.0537 14.049C60.8196 14.348 61.6704 14.5515 62.4846 14.3323C62.9717 14.2185 63.4432 13.9102 63.6162 13.4208C63.9551 13.6635 64.2705 13.9377 64.5702 14.2257C64.6302 14.2826 64.6609 14.3618 64.6955 14.4351C65.37 16.0187 65.9179 17.6566 66.3299 19.3279C66.1562 19.1911 65.9779 19.0589 65.7984 18.9294C65.8401 18.6015 65.782 18.2593 65.5875 17.9871C65.1395 17.3229 64.3664 16.9492 63.5979 16.8072C62.232 16.5481 60.8216 16.639 59.4602 16.8805C60.3488 17.8274 61.3381 18.701 62.4859 19.32C63.2003 19.7159 64.0517 19.9509 64.862 19.7467C65.2127 19.6649 65.5267 19.4509 65.7207 19.1453C65.9544 19.3495 66.1856 19.5582 66.3978 19.786C66.4415 19.8331 66.4689 19.8887 66.48 19.9541C66.8921 21.7537 67.1474 23.5879 67.2636 25.43C67.1441 25.309 67.0239 25.1886 66.9012 25.0714C67.0044 24.6939 66.9476 24.2842 66.7471 23.9492C66.3612 23.2856 65.6906 22.8328 64.9763 22.5861C63.7063 22.1293 62.343 21.9768 60.9992 21.984C61.658 23.0023 62.4246 23.9636 63.3531 24.7482C63.9198 25.2304 64.5865 25.6427 65.3387 25.7291C65.8545 25.8011 66.4428 25.6964 66.7863 25.271C66.9541 25.4935 67.1624 25.6931 67.2825 25.947C67.3674 27.8094 67.2584 29.6809 66.9867 31.525C66.8783 31.3764 66.7804 31.2207 66.6818 31.0662C66.849 30.7194 66.8392 30.3104 66.706 29.9544C66.4618 29.2817 65.9322 28.7491 65.3276 28.3872C64.1255 27.6706 62.7615 27.2656 61.391 27.0267C61.9747 28.397 62.721 29.7365 63.8101 30.7692C64.3338 31.2455 65.0214 31.5956 65.7422 31.5708C66.036 31.5669 66.3129 31.4432 66.5368 31.258C66.6642 31.5119 66.813 31.7586 66.9025 32.0295C66.6126 33.8899 66.1144 35.717 65.4614 37.4825C65.4203 37.3392 65.3798 37.1959 65.34 37.0526C65.6828 36.639 65.6795 36.0527 65.5182 35.5645C65.2871 34.8041 64.7223 34.2073 64.1118 33.7276C63.1813 32.9875 62.119 32.4267 61.0201 31.9837C61.2584 33.2669 61.6521 34.5371 62.2986 35.6757C62.6564 36.3131 63.1624 36.8955 63.8428 37.1926C64.2522 37.383 64.7465 37.4288 65.1526 37.2057C65.1918 37.4746 65.2767 37.7469 65.2545 38.0197C64.5721 39.7892 63.6919 41.4782 62.6838 43.0827C62.6733 42.9171 62.6622 42.7522 62.6498 42.5873C63.0181 42.3086 63.1637 41.8315 63.1487 41.3839C63.1493 40.5987 62.7746 39.871 62.2986 39.2676C61.5131 38.2645 60.5297 37.4282 59.4745 36.7214C59.4634 38.0976 59.5771 39.4993 60.038 40.8048C60.2927 41.539 60.7641 42.2405 61.4713 42.5978C61.7657 42.7516 62.1099 42.7791 62.4304 42.7045C62.4082 43.0022 62.4794 43.334 62.3377 43.6088C61.3015 45.1656 60.1144 46.6229 58.802 47.9539C58.8216 47.7845 58.8425 47.6163 58.8601 47.4475C59.3779 47.2158 59.6136 46.6386 59.6574 46.1033C59.7521 45.1957 59.3662 44.3332 58.9306 43.563C58.3959 42.6482 57.7423 41.8008 56.9933 41.0515C56.6851 42.3799 56.5206 43.7626 56.691 45.1224C56.7759 45.8579 57.0599 46.5974 57.6091 47.1098C57.8846 47.3663 58.2496 47.5286 58.6309 47.5083C58.5617 47.793 58.531 48.0966 58.3965 48.3597C57.0586 49.6789 55.5849 50.8568 54.0263 51.9045C54.1001 51.7402 54.1164 51.5347 54.2261 51.3954C54.757 51.2318 55.0926 50.7331 55.2323 50.2181C55.4321 49.5696 55.3701 48.876 55.2088 48.2268C54.9111 47.0267 54.3711 45.8985 53.7279 44.8469C53.6946 44.7095 53.6032 44.8535 53.5889 44.9071C53.058 46.0916 52.6375 47.3454 52.5259 48.6456C52.4482 49.4335 52.5879 50.2875 53.0939 50.919C53.3048 51.1918 53.6209 51.3705 53.9623 51.4176C53.8337 51.6813 53.7345 51.9666 53.5529 52.1996C51.9624 53.2283 50.2569 54.077 48.4985 54.7779C48.5827 54.613 48.6689 54.4494 48.7551 54.2864C49.2885 54.2923 49.7247 53.901 49.9787 53.4639C50.4371 52.7146 50.4795 51.7991 50.4012 50.9464C50.3045 49.8294 50.0264 48.7333 49.6411 47.6824C48.8733 48.6947 48.2112 49.8032 47.7939 51.0086C47.5608 51.6754 47.4498 52.4051 47.6183 53.1007C47.7326 53.5889 48.0231 54.0751 48.5135 54.255C48.36 54.4939 48.2255 54.7576 48.0159 54.9519C46.2575 55.622 44.4247 56.0892 42.571 56.4066C42.682 56.2725 42.7904 56.1377 42.8994 56.0035C43.4975 56.0906 44.0408 55.7091 44.3868 55.2543C44.934 54.5691 45.0999 53.6752 45.1906 52.8252C45.2899 51.7899 45.2403 50.7449 45.0966 49.7162C44.1133 50.5551 43.2253 51.5256 42.5638 52.642C42.1427 53.3415 41.871 54.185 42.046 55.0036C42.1159 55.3825 42.3379 55.7306 42.6722 55.9283C42.4763 56.1069 42.3111 56.3229 42.0904 56.4721C41.3591 56.5977 40.618 56.6599 39.8795 56.7247C39.5694 56.758 39.2423 56.6723 39.0072 56.4623C38.7003 56.1966 38.5475 55.8079 38.4084 55.4368C37.956 55.9643 37.9449 56.7004 38.0121 57.3561C38.0996 58.1499 38.1525 58.9515 38.0598 59.7473C38.4111 59.2139 38.5488 58.5569 38.9687 58.0668C39.1802 57.8129 39.5315 57.9071 39.8175 57.8934C40.3954 57.9078 40.968 57.809 41.5119 57.6172C41.3049 58.0184 40.9536 58.4391 41.1136 58.9221C41.3056 59.5346 41.8292 59.9573 42.2804 60.382C43.1234 61.1483 44.0839 61.857 44.5984 62.9053C44.9301 63.5486 44.9791 64.292 44.8948 65C45.2487 64.0767 45.3349 62.9937 44.9059 62.0808C44.507 61.2955 43.92 60.63 43.348 59.9691C43.0078 59.5621 42.6415 59.138 42.5214 58.6067C42.4149 58.1525 42.5749 57.6866 42.8113 57.3012C43.4081 57.1965 44.001 57.0695 44.5893 56.9242C44.7388 56.8856 44.8909 56.8542 45.0457 56.8595C45.5981 56.8654 46.1498 56.9242 46.6905 57.0375C46.4946 57.6611 46.8197 58.3037 47.25 58.7434C47.8938 59.4338 48.8197 59.744 49.7136 59.9521C50.9052 60.2119 52.1328 60.2989 53.3492 60.2433C52.6787 59.2728 51.9069 58.3652 51.0175 57.5878C50.2986 56.9694 49.4772 56.3844 48.5102 56.2705C47.8984 56.1802 47.1762 56.3013 46.7923 56.8366C46.4711 56.741 46.1465 56.6579 45.8162 56.6023C47.506 56.1285 49.1508 55.4951 50.7309 54.7308C50.8295 54.6817 50.9366 54.6516 51.0456 54.6378C51.5974 54.56 52.1556 54.5318 52.7113 54.5691C52.6819 55.2772 53.2173 55.8439 53.7906 56.1769C54.6897 56.7135 55.7736 56.7469 56.7916 56.7299C57.8402 56.6893 58.8849 56.531 59.8996 56.2666C58.9835 55.3976 57.9649 54.6267 56.8484 54.0338C56.1634 53.6818 55.4243 53.3768 54.6427 53.3755C54.0877 53.3703 53.4883 53.4874 53.0704 53.8787C52.9268 54.0044 52.8523 54.183 52.7524 54.342C52.3829 54.31 52.0139 54.2563 51.6411 54.2773C53.2735 53.4272 54.8242 52.4201 56.2757 51.288C56.3685 51.2115 56.4775 51.1617 56.5911 51.129C57.0834 50.9811 57.5875 50.8692 58.0988 50.8156C58.1784 51.4693 58.7557 51.9182 59.3335 52.1368C60.2535 52.5065 61.2721 52.3809 62.2169 52.1845C63.3491 51.9326 64.4454 51.5269 65.4836 51.0099C64.3031 50.2973 63.0377 49.7011 61.6939 49.3759C60.851 49.1659 59.9283 49.1089 59.1167 49.4682C58.6362 49.6671 58.1935 50.0558 58.1053 50.5937C57.7429 50.5931 57.3818 50.631 57.0247 50.6925C58.4344 49.5251 59.7475 48.2386 60.9274 46.8369C61.0044 46.7381 61.1056 46.6622 61.2173 46.6072C61.6547 46.3788 62.1085 46.1799 62.5793 46.0314C62.7282 46.4888 63.1337 46.8081 63.5757 46.9599C64.3919 47.2531 65.2943 47.1386 66.0961 46.8546C67.4647 46.3723 68.717 45.6001 69.8519 44.703C68.4683 44.2246 67.0168 43.8974 65.5476 43.8922C64.7961 43.8955 64.0217 44.0381 63.3883 44.4628C62.9332 44.754 62.5356 45.2311 62.5499 45.8004C62.198 45.8848 61.8474 45.979 61.5111 46.1171C62.6675 44.6794 63.6776 43.1272 64.5643 41.5096C64.9378 41.0862 65.3935 40.7407 65.8545 40.4187C66.2025 40.9991 66.9404 41.1588 67.5685 41.1006C68.5597 41.0306 69.4216 40.4697 70.1849 39.8762C71.0886 39.1505 71.8963 38.3057 72.6021 37.3856C71.1232 37.2567 69.6109 37.2875 68.1673 37.6605C67.3289 37.8725 66.5022 38.3109 66.0164 39.0504C65.7879 39.3854 65.6834 39.8062 65.7716 40.2073C65.496 40.3592 65.2264 40.5208 64.9724 40.7073C65.7807 39.089 66.4369 37.3974 66.9606 35.6672C67.2525 35.1561 67.6358 34.6968 68.0536 34.2845C68.3716 34.594 68.8352 34.6968 69.2662 34.6529C70.0295 34.5849 70.734 34.1988 71.291 33.6844C72.4421 32.6165 73.2903 31.2645 73.9805 29.8635C72.8071 30.0016 71.6429 30.2594 70.5375 30.6808C69.6416 31.0289 68.7268 31.4936 68.1718 32.3128C67.8147 32.8154 67.5992 33.513 67.9074 34.0915C67.6606 34.3081 67.4164 34.5292 67.2022 34.7792C67.6299 33.1505 67.9178 31.4851 68.0654 29.8079C68.0876 29.607 68.0765 29.3969 68.1614 29.2098C68.3729 28.6928 68.6348 28.1961 68.9456 27.7328C69.4483 28.058 70.0967 27.9416 70.6002 27.6811C71.3256 27.3192 71.8545 26.6675 72.2475 25.9738C72.9377 24.756 73.3804 23.4086 73.6651 22.0416C72.4415 22.501 71.2635 23.1044 70.2169 23.8909C69.56 24.3896 68.9436 24.9949 68.6433 25.7808C68.4154 26.3553 68.352 27.0837 68.7719 27.5875C68.5479 27.8715 68.3344 28.1641 68.1614 28.4821C68.2482 26.6923 68.147 24.8947 67.8787 23.1233C67.8356 22.9015 67.9035 22.681 67.9485 22.465C68.0419 22.0475 68.1705 21.6385 68.3201 21.238C68.721 21.3755 69.1624 21.2996 69.526 21.0941C70.1346 20.7564 70.5923 20.1871 70.8829 19.5609C71.1885 18.8823 71.3798 18.1572 71.5123 17.4269C71.671 16.5212 71.7526 15.5999 71.7311 14.6805C70.6805 15.3597 69.6952 16.1528 68.8574 17.086C68.2593 17.7587 67.7141 18.5407 67.594 19.4562C67.5052 20.053 67.6096 20.7571 68.1261 21.1386C67.9557 21.4514 67.8251 21.7838 67.7167 22.1228C67.3687 20.2761 66.864 18.4589 66.2078 16.6986C66.1301 16.0311 66.2443 15.3512 66.3821 14.6968C67.0435 14.7688 67.6116 14.2963 67.9492 13.7715C68.4931 12.9679 68.5832 11.9667 68.5995 11.0231C68.5891 9.83736 68.4258 8.65358 68.1294 7.50644C67.1252 8.57178 66.2352 9.77061 65.6403 11.1154C65.2525 11.9667 65.0814 12.9804 65.4386 13.871C65.5679 14.2178 65.8408 14.4789 66.1594 14.6536C66.0439 15.0535 65.9348 15.4572 65.8891 15.8727C65.1696 14.1079 64.309 12.4006 63.3021 10.7829C63.2022 10.6213 63.2114 10.423 63.1859 10.2411C63.1402 9.8354 63.1454 9.42706 63.1454 9.02003C63.6058 9.02331 64.0302 8.76221 64.2946 8.3951C64.8346 7.67462 64.9737 6.72904 64.8875 5.85085C64.7615 4.38634 64.3122 2.96436 63.7109 1.63007C62.8993 2.87733 62.215 4.23387 61.8702 5.68922C61.675 6.50458 61.6685 7.40501 62.0491 8.16868C62.2274 8.53579 62.531 8.84662 62.9215 8.98012C62.8745 9.35115 62.8438 9.72546 62.8555 10.0991C62.1432 8.98797 61.3368 7.93768 60.4794 6.93517C60.1242 6.52225 59.7645 6.10737 59.3348 5.76905C59.5353 5.53806 59.673 5.24947 59.6841 4.9406C59.7416 4.16319 59.3884 3.41458 58.9052 2.82629C58.4599 2.30998 57.9336 1.86958 57.3786 1.4776Z" fill="#FFA800"/>
<path d="M19.2743 0C18.1479 0.480972 17.0679 1.08562 16.1022 1.8434C15.4134 2.40159 14.7349 3.04812 14.4385 3.90864C14.2165 4.51002 14.1714 5.26976 14.6383 5.76905C14.1662 6.14271 13.7758 6.6047 13.3846 7.0595C12.5613 8.02341 11.8084 9.0449 11.1026 10.0978C11.1307 9.72546 11.0961 9.35181 11.0523 8.98142C11.5923 8.79427 11.9344 8.27927 12.0879 7.75053C12.3589 6.9031 12.2133 5.99351 11.9619 5.16113C11.5799 3.90602 10.9805 2.72486 10.2616 1.63138C9.76078 2.72682 9.38468 3.88443 9.179 5.07279C9.02229 6.0367 8.96157 7.0824 9.42059 7.9776C9.67916 8.52597 10.1813 9.02854 10.8251 9.02265C10.8297 9.58608 10.8381 10.1626 10.7056 10.7123C9.69418 12.3561 8.80747 14.0784 8.08465 15.8695C8.03111 15.4539 7.93709 15.0443 7.80584 14.6464C8.46206 14.3559 8.71867 13.5889 8.72324 12.9189C8.7585 12.2082 8.52866 11.5191 8.2283 10.8857C7.66873 9.70779 6.88388 8.65161 6.01611 7.68509C5.95082 7.62358 5.89466 7.52607 5.79671 7.5156C5.79867 7.61507 5.78888 7.71323 5.76734 7.81073C5.5042 8.94805 5.35141 10.1174 5.37883 11.2862C5.40691 12.1565 5.53358 13.0681 6.04157 13.7997C6.37784 14.3166 6.94134 14.7662 7.59168 14.7007C7.71966 15.2753 7.7954 15.8636 7.79409 16.4532C7.80519 16.6155 7.7412 16.7666 7.6857 16.9152C7.06083 18.5969 6.60376 20.3376 6.25443 22.0966C6.13625 21.7694 6.00893 21.4455 5.85157 21.1353C6.35695 20.7473 6.47121 20.0543 6.37654 19.4575C6.25639 18.523 5.69094 17.7292 5.07847 17.0454C4.24074 16.1293 3.27045 15.3375 2.22378 14.6733C2.23423 15.8224 2.33086 16.9754 2.59726 18.0944C2.78988 18.8495 3.02756 19.6165 3.49834 20.2486C3.86399 20.7211 4.34521 21.1477 4.94266 21.2806C5.17838 21.3408 5.42062 21.3009 5.65046 21.2394C5.84699 21.7583 6.00631 22.2923 6.09838 22.8406C6.12058 22.9767 6.09381 23.1148 6.07422 23.2509C5.81435 24.97 5.73992 26.7139 5.80325 28.4507C5.62108 28.149 5.4167 27.8617 5.20057 27.5836C5.50811 27.2211 5.56297 26.7139 5.46763 26.2617C5.30636 25.434 4.77159 24.7305 4.13562 24.2011C3.00928 23.2483 1.67857 22.5632 0.306065 22.0416C0.550266 23.2339 0.927673 24.402 1.4644 25.4948C1.88294 26.3167 2.40726 27.1419 3.23128 27.6052C3.76344 27.918 4.47058 28.0842 5.02689 27.7374C5.36969 28.2609 5.69028 28.8152 5.8705 29.4172C6.01088 31.2246 6.3119 33.0189 6.76374 34.774C6.55479 34.524 6.3119 34.3067 6.06378 34.096C6.29819 33.6537 6.23354 33.1118 6.01154 32.678C5.65764 31.9451 4.99685 31.4098 4.27926 31.0558C2.94463 30.3883 1.47158 30.0474 -0.00147247 29.8628C0.528069 30.9772 1.18559 32.0354 1.98806 32.9725C2.46602 33.5149 2.99426 34.0417 3.65439 34.3552C4.35174 34.6902 5.30113 34.8571 5.92339 34.2845C6.33149 34.6974 6.71085 35.1489 7.00533 35.6502C7.53356 37.3882 8.18586 39.091 9.00662 40.7119C8.74936 40.5267 8.47969 40.3598 8.20153 40.208C8.31384 39.7224 8.11926 39.2258 7.81303 38.8528C7.32658 38.2494 6.6116 37.8725 5.87181 37.6794C4.4092 37.2881 2.87281 37.2541 1.37233 37.3869C2.12061 38.3659 2.98381 39.2617 3.96258 40.0117C4.47058 40.3834 5.00274 40.7439 5.60671 40.9383C6.21461 41.1326 6.90151 41.1968 7.50288 40.9474C7.7621 40.8447 7.96451 40.6438 8.1173 40.4161C8.58351 40.7524 9.06408 41.0953 9.42973 41.5436C10.3053 43.1488 11.3115 44.6853 12.4568 46.1112C12.1199 45.9855 11.7764 45.8782 11.4238 45.8049C11.4343 45.2474 11.0556 44.7723 10.6103 44.4805C9.91095 44.0008 9.04057 43.8732 8.20937 43.8935C6.81271 43.9334 5.43433 44.2442 4.11929 44.7056C5.08174 45.4627 6.1258 46.1262 7.25084 46.6131C7.94949 46.9043 8.68994 47.1589 9.4565 47.1288C10.0226 47.1117 10.6188 46.9665 11.0458 46.5745C11.211 46.4305 11.3141 46.2336 11.3873 46.0314C11.9273 46.2113 12.4679 46.4201 12.9459 46.7315C14.1623 48.1633 15.4956 49.4976 16.9465 50.6912C16.59 50.6323 16.2295 50.5911 15.8678 50.595C15.7953 50.1762 15.5074 49.8242 15.1437 49.6174C14.3987 49.1757 13.4819 49.1279 12.6488 49.2974C11.1672 49.5873 9.7771 50.2338 8.49079 51.0106C9.68046 51.6015 10.9465 52.0576 12.2577 52.2794C13.1385 52.428 14.0905 52.4404 14.9014 52.017C15.3801 51.786 15.8117 51.3613 15.8724 50.8097C16.4529 50.8947 17.0444 50.9877 17.5883 51.2141C19.079 52.3612 20.6513 53.4095 22.3242 54.272C21.9513 54.2687 21.5785 54.2943 21.2089 54.3505C21.0581 53.9167 20.6592 53.6248 20.2315 53.5005C19.3787 53.2342 18.4515 53.4154 17.6562 53.7806C16.3216 54.3767 15.1326 55.266 14.0735 56.2672C15.5048 56.6304 16.9961 56.8254 18.4718 56.69C19.2932 56.6226 20.1237 56.3425 20.7284 55.764C21.0503 55.4532 21.2821 55.0272 21.2592 54.5691C21.8299 54.5325 22.4045 54.5586 22.9693 54.6457C23.1795 54.6718 23.3571 54.7929 23.5465 54.8773C25.032 55.5755 26.5736 56.1547 28.1524 56.6042C27.8233 56.6579 27.4988 56.739 27.1802 56.8372C26.8223 56.3366 26.1583 56.1939 25.5785 56.2574C24.7747 56.3196 24.048 56.724 23.4205 57.2082C22.3274 58.053 21.4081 59.1086 20.6239 60.2426C22.1165 60.3022 23.6379 60.1844 25.0666 59.727C25.8841 59.4744 26.665 58.9849 27.109 58.2343C27.3264 57.877 27.3924 57.4392 27.2866 57.0342C28.0603 56.9079 28.8759 56.7417 29.6424 56.9877C30.1491 57.1094 30.6604 57.2095 31.1716 57.3077C31.4119 57.7239 31.5719 58.2232 31.4276 58.7002C31.2369 59.3134 30.7753 59.7826 30.3705 60.2616C29.8925 60.8139 29.4315 61.3898 29.0855 62.0363C28.6395 62.955 28.7133 64.059 29.0776 64.9921C28.9849 64.2402 29.0567 63.4471 29.4381 62.7797C30.1243 61.5213 31.3989 60.7733 32.3476 59.7433C32.6179 59.4417 32.8915 59.087 32.8974 58.6629C32.898 58.2683 32.6284 57.9542 32.456 57.6212C32.7968 57.7101 33.1305 57.8371 33.4844 57.8607C33.8768 57.9052 34.2712 57.8862 34.6643 57.8947C34.8602 57.9006 35.0071 58.0557 35.1155 58.2036C35.4439 58.6832 35.5928 59.2604 35.9153 59.744C35.818 59.0163 35.8605 58.2814 35.9408 57.5551C36.0218 56.8333 36.0544 56.0245 35.5686 55.427C35.4223 55.8033 35.2715 56.2038 34.9555 56.4721C34.7309 56.6599 34.4318 56.7502 34.1406 56.7273C33.3825 56.671 32.6264 56.5859 31.8729 56.4799C31.6744 56.3045 31.4766 56.1272 31.3022 55.9263C31.869 55.6011 32.025 54.8839 31.9695 54.2772C31.9154 53.4782 31.5125 52.761 31.0731 52.1125C30.4534 51.218 29.7012 50.4203 28.8778 49.7123C28.7179 50.8129 28.6793 51.9359 28.8047 53.0424C28.9013 53.8192 29.0829 54.6221 29.5798 55.2477C29.9252 55.7018 30.4665 56.0925 31.0652 56.0015C31.1788 56.1344 31.2892 56.2705 31.3982 56.4073C29.6242 56.1043 27.8743 55.6541 26.1812 55.0429C25.7985 54.9572 25.6666 54.5403 25.4551 54.2576C25.856 54.1091 26.1413 53.7518 26.2752 53.3539C26.5331 52.6446 26.456 51.8573 26.2236 51.1519C25.8429 49.9616 25.2011 48.8733 24.4724 47.8656C24.4169 47.8021 24.3725 47.6941 24.2739 47.6994C24.2778 47.9049 24.1786 48.0894 24.1224 48.2824C23.7633 49.4361 23.5093 50.6395 23.5459 51.8541C23.57 52.5778 23.7894 53.329 24.2961 53.863C24.5364 54.1228 24.8759 54.2825 25.2292 54.2936C25.3049 54.4539 25.3872 54.611 25.4681 54.7693C23.7182 54.0868 22.0343 53.2322 20.4489 52.2238C20.2321 52.0046 20.1492 51.6859 20.0101 51.4156C20.5717 51.3574 20.9824 50.8915 21.1946 50.3994C21.5295 49.671 21.5028 48.8419 21.3774 48.0678C21.192 46.9213 20.8061 45.8128 20.3124 44.7645C19.7483 45.5988 19.3193 46.5221 18.983 47.4703C18.731 48.2471 18.5136 49.0749 18.6624 49.8948C18.7428 50.3477 18.9236 50.8025 19.2632 51.1225C19.4022 51.2599 19.5929 51.3162 19.7614 51.4039C19.8384 51.5642 19.8874 51.7369 19.9481 51.9044C18.396 50.8673 16.9334 49.6933 15.6001 48.3852C15.429 48.1306 15.4251 47.8002 15.3383 47.5109C15.986 47.5449 16.5129 47.0646 16.8198 46.5392C17.2553 45.8219 17.3343 44.9614 17.35 44.1415C17.3546 43.0984 17.2194 42.0566 16.9778 41.0436C15.9488 42.1181 15.0151 43.3327 14.4914 44.7396C14.2779 45.3698 14.2165 46.0817 14.4542 46.7145C14.5717 47.0306 14.8015 47.3074 15.1137 47.4448C15.1306 47.615 15.1509 47.7845 15.1698 47.9552C13.8548 46.6183 12.6644 45.1571 11.6243 43.5957C11.5002 43.3196 11.561 42.9963 11.5237 42.7005C11.8626 42.7823 12.227 42.7509 12.5345 42.5814C13.2286 42.2084 13.6981 41.5135 13.9429 40.778C14.3889 39.481 14.5201 38.0917 14.4894 36.7267C13.8763 37.1337 13.2965 37.5911 12.7565 38.0917C12.1734 38.6486 11.6132 39.2474 11.2162 39.9554C10.9015 40.5326 10.733 41.2177 10.8727 41.8701C10.9309 42.1574 11.1045 42.4028 11.322 42.5926C11.3122 42.7418 11.303 42.891 11.2906 43.0408C10.9877 42.6495 10.7631 42.2019 10.5077 41.7785C9.82803 40.5771 9.22405 39.3305 8.72585 38.0426C8.68276 37.7645 8.7807 37.4831 8.81922 37.2076C9.19989 37.417 9.65957 37.3876 10.0507 37.226C10.748 36.9472 11.2795 36.3681 11.6445 35.7255C12.3112 34.5757 12.7056 33.2853 12.955 31.985C11.9913 32.3652 11.0673 32.8527 10.2211 33.4521C9.53355 33.956 8.84665 34.5436 8.5267 35.359C8.30339 35.8969 8.24071 36.5755 8.63183 37.0539C8.592 37.1952 8.55151 37.3366 8.50907 37.4779C7.862 35.7333 7.3749 33.9266 7.07454 32.0897C7.10915 31.7893 7.3083 31.5276 7.43497 31.256C7.86331 31.646 8.49993 31.6323 9.01707 31.453C9.74706 31.2213 10.319 30.6762 10.7944 30.0958C11.5433 29.1718 12.1258 28.1195 12.5822 27.0221C11.5257 27.208 10.4816 27.4959 9.5009 27.9363C8.7918 28.2681 8.06964 28.662 7.60735 29.3171C7.24627 29.8052 7.00598 30.4851 7.29393 31.0656C7.18946 31.2233 7.0876 31.383 6.9864 31.5433C6.71346 29.6881 6.60572 27.8068 6.68995 25.9326C6.8212 25.6892 7.01512 25.4876 7.18815 25.2736C7.55707 25.7304 8.20023 25.8089 8.74413 25.7134C9.50286 25.5975 10.1558 25.1506 10.7245 24.6585C11.6034 23.8896 12.3399 22.9663 12.97 21.9847C11.6948 21.9729 10.4059 22.1208 9.18944 22.5167C8.41831 22.7647 7.65893 23.2032 7.24104 23.923C7.03275 24.2613 6.96224 24.6808 7.0752 25.0649C6.95505 25.1873 6.8336 25.309 6.71085 25.4294C6.82707 23.5546 7.08238 21.6837 7.52116 19.8566C7.73924 19.5968 7.99585 19.3691 8.25246 19.1473C8.5933 19.7035 9.30306 19.8606 9.91096 19.8148C10.7232 19.7683 11.4584 19.3698 12.1284 18.9379C13.0053 18.3568 13.8019 17.6553 14.5077 16.8766C13.1653 16.6462 11.779 16.55 10.4314 16.7961C9.7118 16.9217 8.99617 17.2384 8.51691 17.8065C8.25311 18.1107 8.09837 18.523 8.17672 18.9274C7.99324 19.057 7.81433 19.1924 7.63869 19.3325C8.06115 17.6448 8.60636 15.986 9.29849 14.3886C9.33048 14.3199 9.36966 14.2551 9.42451 14.2034C9.71572 13.9214 10.0259 13.6603 10.351 13.4181C10.558 13.996 11.1594 14.3009 11.7327 14.3834C12.509 14.5214 13.2893 14.2963 14.0069 14.0143C15.0523 13.5896 16.0271 12.9987 16.9217 12.3122C15.5191 11.8044 14.0278 11.4498 12.5273 11.5401C11.815 11.6068 11.0745 11.8738 10.6077 12.4405C10.4314 12.6427 10.3426 12.9051 10.3275 13.1708C10.0951 13.3115 9.86655 13.4587 9.64324 13.6138C10.2348 12.3554 10.9015 11.1285 11.6785 9.97543C12.178 9.60898 12.7526 9.35377 13.3291 9.13324C13.5283 9.69732 14.1212 9.98525 14.6755 10.0749C15.4911 10.2241 16.3105 9.98001 17.0601 9.67442C18.0722 9.25103 19.0189 8.67648 19.8861 8.00639C18.6161 7.54112 17.2762 7.22179 15.9187 7.21393C15.1953 7.21459 14.4431 7.38473 13.8665 7.8441C13.5387 8.09801 13.288 8.48409 13.2978 8.91206C12.8904 9.01283 12.4947 9.15811 12.1127 9.33283C12.7082 8.48998 13.35 7.6792 14.0428 6.91488C14.3295 6.59947 14.6096 6.27489 14.8355 5.91236C15.2978 6.16823 15.8659 6.07661 16.3177 5.84561C17.0608 5.48636 17.5981 4.81692 17.9736 4.0971C18.6494 2.82432 19.0372 1.41609 19.2743 0Z" fill="#FFA800"/>
</svg>
