<svg width="98" height="122" viewBox="0 0 98 122" fill="none" xmlns="http://www.w3.org/2000/svg">
<path fill-rule="evenodd" clip-rule="evenodd" d="M93.572 4.37292V95.6077H4.27981V4.37292H93.572ZM4.27725e-06 0L97.8519 4.3703e-06V99.9807H0L4.27725e-06 0ZM62.4463 36.1759V24.7468C62.4463 18.4347 67.4541 13.3176 73.6321 13.3176H84.8179V24.7468C84.8179 30.8479 80.1395 35.832 74.2482 36.1589L73.8379 36.1816V33.1279L74.2004 33.1026C78.4622 32.8045 81.8294 29.1773 81.8294 24.7468V19.2084L65.2229 36.1759H62.4463ZM80.3797 16.3711H73.6321C69.1046 16.3711 65.4347 20.1211 65.4347 24.7468V31.6414L80.3797 16.3711ZM17.4338 115.962C17.4338 114.287 17.9853 112.892 19.0883 111.776C20.1913 110.649 21.6042 110.085 23.327 110.085C25.0499 110.085 26.4628 110.649 27.5658 111.776C28.6689 112.892 29.2203 114.287 29.2203 115.962C29.2203 117.679 28.6689 119.112 27.5658 120.26C26.4628 121.409 25.0499 121.983 23.327 121.983C21.6042 121.983 20.1913 121.409 19.0883 120.26C17.9853 119.112 17.4338 117.679 17.4338 115.962ZM20.2859 115.962C20.2859 116.949 20.5695 117.77 21.1368 118.425C21.7145 119.08 22.4446 119.407 23.327 119.407C24.2095 119.407 24.9343 119.08 25.5016 118.425C26.0794 117.77 26.3682 116.949 26.3682 115.962C26.3682 115.017 26.0794 114.234 25.5016 113.611C24.9343 112.978 24.2095 112.661 23.327 112.661C22.4446 112.661 21.7145 112.978 21.1368 113.611C20.5695 114.234 20.2859 115.017 20.2859 115.962ZM0.403667 121.79V110.278H3.1612V114.883H7.25814V110.278H10.0157V121.79H7.25814V117.282H3.1612V121.79H0.403667ZM37.6869 111.776C36.5839 112.892 36.0325 114.287 36.0325 115.962C36.0325 117.679 36.5839 119.112 37.6869 120.26C38.79 121.409 40.2028 121.983 41.9257 121.983C43.6486 121.983 45.0614 121.409 46.1645 120.26C47.2675 119.112 47.8189 117.679 47.8189 115.962C47.8189 114.287 47.2675 112.892 46.1645 111.776C45.0614 110.649 43.6486 110.085 41.9257 110.085C40.2028 110.085 38.79 110.649 37.6869 111.776ZM39.7353 118.425C39.1682 117.77 38.8846 116.949 38.8846 115.962C38.8846 115.017 39.1682 114.234 39.7353 113.611C40.3132 112.978 41.0434 112.661 41.9257 112.661C42.8083 112.661 43.5331 112.978 44.1003 113.611C44.6781 114.234 44.9671 115.017 44.9671 115.962C44.9671 116.949 44.6781 117.77 44.1003 118.425C43.5331 119.08 42.8083 119.407 41.9257 119.407C41.0434 119.407 40.3132 119.08 39.7353 118.425ZM55.2458 121.79V110.278H58.0033V114.722H59.1379L61.4699 110.278H64.4322L61.3911 115.785V115.817L64.6057 121.79H61.5173L59.1379 117.121H58.0033V121.79H55.2458ZM74.1516 110.278L70.3226 121.79H73.159L73.8365 119.375H77.3504L78.0438 121.79H80.8799L77.0508 110.278H74.1516ZM76.7041 117.121H74.4825L75.1285 114.883C75.2651 114.4 75.4175 113.74 75.5856 112.903H75.6171L76.0739 114.883L76.7041 117.121ZM87.6883 121.79V110.278H90.4458V114.883H94.5427V110.278H97.3002V121.79H94.5427V117.282H90.4458V121.79H87.6883ZM11.8667 12.1248V87.3598H21.5875V84.1694H15.5094V12.1248H11.8667ZM23.3517 72.1529V87.3598H26.9944V72.1529H23.3517ZM29.3299 79.7244C29.3299 77.4985 30.0654 75.6409 31.5363 74.1521C33.0212 72.6493 34.8874 71.8977 37.1355 71.8977C39.4532 71.8977 41.3611 72.5713 42.8598 73.9182L41.1113 76.7043C40.6813 76.3073 40.1262 75.9741 39.4461 75.7047C38.766 75.4354 38.1138 75.3008 37.4895 75.3008C36.0184 75.3008 34.9153 75.7119 34.1798 76.5343C33.4583 77.3422 33.0975 78.3631 33.0975 79.5969C33.0975 81.0005 33.5067 82.1207 34.3256 82.9571C35.1581 83.7939 36.171 84.2119 37.3645 84.2119C38.447 84.2119 39.4532 83.8434 40.3828 83.1062V81.9362H38.2805V78.7674H43.6092V87.3598H40.57V86.9342L40.5909 86.2963H40.5492C40.1054 86.6934 39.5224 87.0125 38.801 87.2533C38.093 87.4944 37.3715 87.615 36.636 87.615C34.6377 87.615 32.917 86.8988 31.4738 85.4668C30.0446 84.0347 29.3299 82.1207 29.3299 79.7244ZM46.2202 72.1529V87.3598H55.8369V84.1694H49.8629V81.2983H54.4007V78.1079H49.8629V75.3431H55.5454V72.1529H46.2202ZM58.1729 87.3598V72.1529H63.3559C64.6741 72.1529 65.6386 72.2735 66.2491 72.5146C67.1094 72.8547 67.7825 73.4077 68.2683 74.1734C68.754 74.925 68.9968 75.8466 68.9968 76.9383C68.9968 77.7891 68.8025 78.6043 68.4139 79.384C68.0255 80.1497 67.4772 80.7168 66.7695 81.0857V81.128C66.9084 81.3124 67.0956 81.6174 67.3316 82.0427L70.2249 87.3598H66.1658L63.5223 82.234H61.8155V87.3598H58.1729ZM61.8155 79.0439H63.3976C63.9943 79.0439 64.4589 78.8808 64.7921 78.5548C65.1252 78.2285 65.2917 77.7678 65.2917 77.1722C65.2917 76.3357 65.0002 75.7968 64.4175 75.556C64.0982 75.4141 63.6403 75.3431 63.0436 75.3431H61.8155V79.0439ZM73.0846 74.1308C71.6276 75.6055 70.8991 77.4487 70.8991 79.6605C70.8991 81.9293 71.6276 83.8221 73.0846 85.3393C74.542 86.8562 76.4082 87.615 78.6841 87.615C80.9598 87.615 82.8263 86.8562 84.2834 85.3393C85.7404 83.8221 86.469 81.9293 86.469 79.6605C86.469 77.4487 85.7404 75.6055 84.2834 74.1308C82.8263 72.6421 80.9598 71.8977 78.6841 71.8977C76.4082 71.8977 74.542 72.6421 73.0846 74.1308ZM75.7906 82.9145C75.0413 82.0499 74.6667 80.9651 74.6667 79.6605C74.6667 78.4129 75.0413 77.3779 75.7906 76.5556C76.5541 75.7188 77.5183 75.3008 78.6841 75.3008C79.8497 75.3008 80.8072 75.7188 81.5566 76.5556C82.3197 77.3779 82.7016 78.4129 82.7016 79.6605C82.7016 80.9651 82.3197 82.0499 81.5566 82.9145C80.8072 83.7795 79.8497 84.2119 78.6841 84.2119C77.5183 84.2119 76.5541 83.7795 75.7906 82.9145Z" fill="white"/>
</svg>
