<svg width="26" height="102" viewBox="0 0 26 102" fill="none" xmlns="http://www.w3.org/2000/svg">
<rect width="94" height="26" transform="matrix(0 -1 -1 0 26 94.5)" fill="#0F8564"/>
<path d="M13 93.5014C12.3302 93.9024 11.6461 94.2951 10.9714 94.6934C7.31454 96.8348 3.65845 98.9767 0.00132942 101.118C-0.000226021 98.5787 -0.000743866 96.0392 0.00158882 93.4996C4.33448 93.5016 8.66737 93.498 13 93.5014Z" fill="#0F8564"/>
<path d="M13 93.5014C13.6698 93.9024 14.3539 94.2951 15.0286 94.6934C18.6855 96.8348 22.3415 98.9767 25.9987 101.118C26.0002 98.5787 26.0007 96.0392 25.9984 93.4996C21.6655 93.5016 17.3326 93.498 13 93.5014Z" fill="#0F8564"/>
<path d="M17 81.5998H8.42V79.4998H11.852V76.3798H8.42V74.2798H17V76.3798H13.64V79.4998H17V81.5998ZM12.656 71.7506C11.416 71.7506 10.376 71.3266 9.536 70.4786C8.696 69.6226 8.276 68.5506 8.276 67.2626C8.276 65.9746 8.696 64.9066 9.536 64.0586C10.376 63.2026 11.416 62.7746 12.656 62.7746C13.928 62.7746 14.996 63.2026 15.86 64.0586C16.716 64.9066 17.144 65.9746 17.144 67.2626C17.144 68.5506 16.716 69.6226 15.86 70.4786C14.996 71.3266 13.928 71.7506 12.656 71.7506ZM12.656 69.5786C13.384 69.5786 13.996 69.3546 14.492 68.9066C14.98 68.4586 15.224 67.9106 15.224 67.2626C15.224 66.6146 14.98 66.0666 14.492 65.6186C13.996 65.1706 13.384 64.9466 12.656 64.9466C11.96 64.9466 11.376 65.1706 10.904 65.6186C10.432 66.0666 10.196 66.6146 10.196 67.2626C10.196 67.9106 10.432 68.4586 10.904 68.9066C11.376 69.3546 11.96 69.5786 12.656 69.5786ZM17 60.2388H8.42V57.0828C8.42 56.2028 8.616 55.4988 9.008 54.9708C9.392 54.4348 9.944 54.1668 10.664 54.1668C11.032 54.1668 11.384 54.2548 11.72 54.4308C12.048 54.6068 12.304 54.8508 12.488 55.1628H12.512C12.648 54.7068 12.9 54.3708 13.268 54.1548C13.628 53.9308 14.02 53.8188 14.444 53.8188C15.316 53.8188 15.96 54.1268 16.376 54.7428C16.792 55.3588 17 56.1388 17 57.0828V60.2388ZM11.744 58.1388V57.0588C11.744 56.8108 11.668 56.6228 11.516 56.4948C11.364 56.3668 11.176 56.3028 10.952 56.3028C10.736 56.3028 10.56 56.3708 10.424 56.5068C10.288 56.6348 10.22 56.8308 10.22 57.0948V58.1388H11.744ZM15.2 58.1388V56.8788C15.2 56.5908 15.116 56.3668 14.948 56.2068C14.772 56.0468 14.556 55.9668 14.3 55.9668C14.044 55.9668 13.836 56.0428 13.676 56.1948C13.508 56.3468 13.424 56.5708 13.424 56.8668V58.1388H15.2ZM17 51.2693H8.42V49.1693H12.428L13.892 49.2653V49.2413C13.292 48.9853 12.804 48.7453 12.428 48.5213L8.42 46.1453V44.0213H17V46.1213H13.004L11.54 46.0253V46.0493C12.14 46.3053 12.628 46.5453 13.004 46.7693L17 49.1573V51.2693ZM17 41.0224H8.42V38.9224H11.852V35.8024H8.42V33.7024H17V35.8024H13.64V38.9224H17V41.0224ZM17 30.7052H8.42V28.6052H11.732V27.7412L8.42 25.9652V23.7092L12.524 26.0252H12.548L17 23.5772V25.9292L13.52 27.7412V28.6052H17V30.7052ZM17 22.3436L8.42 19.4276V17.2196L17 14.3036V16.4636L15.2 16.9916V19.6676L17 20.1836L17 22.3436ZM13.52 19.1756V17.4836L11.852 17.9636L10.376 18.3116V18.3356C11 18.4636 11.492 18.5796 11.852 18.6836L13.52 19.1756Z" fill="white"/>
</svg>
