<svg width="8" height="22" viewBox="0 0 8 22" fill="none" xmlns="http://www.w3.org/2000/svg">
<path d="M4.27445 1.11047C4.11975 0.960164 3.87223 0.964625 3.71914 1.11538C2.85684 2.09082 1.97727 3.04842 1.11176 4.01985C0.954651 4.19915 0.965097 4.51493 1.13105 4.68308C1.29258 4.86461 1.58389 4.85659 1.73859 4.66747C2.34935 3.98952 2.96051 3.31158 3.57087 2.63363C3.57167 8.21109 3.57087 13.7886 3.57127 19.366C2.98221 18.7122 2.39235 18.0592 1.80449 17.404C1.68073 17.2314 1.46696 17.1248 1.27289 17.2162C1.00608 17.3184 0.90804 17.7363 1.10131 17.9669C1.93187 18.9008 2.77568 19.8201 3.60543 20.7549C3.71753 20.9231 3.9096 21.0448 4.10087 20.9842C4.26119 20.9516 4.35401 20.7924 4.4621 20.6746C5.26653 19.7808 6.07177 18.8883 6.87581 17.9945C7.02126 17.8389 7.04176 17.5663 6.92242 17.3861C6.78178 17.148 6.44425 17.1154 6.26906 17.3237C5.65469 18.0061 5.0379 18.6858 4.42634 19.3714C4.42995 13.7912 4.42915 8.21065 4.42674 2.63051C5.03549 3.3089 5.64625 3.98462 6.2558 4.66212C6.39523 4.83473 6.64838 4.86595 6.81754 4.72992C7.02849 4.57559 7.06345 4.20763 6.88143 4.01093C6.01431 3.04218 5.13835 2.08279 4.27445 1.11047Z" fill="#999999" stroke="#999999" stroke-width="0.2"/>
</svg>
