<svg width="22" height="8" viewBox="0 0 22 8" fill="none" xmlns="http://www.w3.org/2000/svg">
<path d="M20.8895 4.27445C21.0398 4.11975 21.0354 3.87223 20.8846 3.71914C19.9092 2.85685 18.9516 1.97727 17.9801 1.11176C17.8008 0.954651 17.4851 0.965097 17.3169 1.13105C17.1354 1.29258 17.1434 1.58389 17.3325 1.73859C18.0105 2.34935 18.6884 2.96051 19.3664 3.57087C13.7889 3.57168 8.21144 3.57087 2.63398 3.57127C3.28784 2.98221 3.94081 2.39235 4.59601 1.80449C4.76862 1.68073 4.87522 1.46697 4.78379 1.27289C4.68165 1.00608 4.26373 0.90804 4.03314 1.10131C3.09917 1.93187 2.17993 2.77568 1.24507 3.60543C1.07692 3.71754 0.95516 3.9096 1.01582 4.10087C1.04838 4.26119 1.20761 4.35401 1.32536 4.4621C2.21918 5.26653 3.11166 6.07177 4.00548 6.87581C4.16114 7.02126 4.43366 7.04176 4.61385 6.92242C4.85203 6.78178 4.88459 6.44426 4.6763 6.26906C3.99389 5.65469 3.31415 5.0379 2.62862 4.42634C8.20877 4.42995 13.7894 4.42915 19.3695 4.42674C18.6911 5.03549 18.0154 5.64625 17.3379 6.2558C17.1653 6.39523 17.134 6.64838 17.2701 6.81754C17.4244 7.0285 17.7924 7.06345 17.9891 6.88143C18.9578 6.01431 19.9172 5.13835 20.8895 4.27445Z" fill="#999999" stroke="#999999" stroke-width="0.2"/>
</svg>
