<svg width="22" height="18" viewBox="0 0 22 18" fill="none" xmlns="http://www.w3.org/2000/svg">
<path d="M11.8657 1.19042C11.4547 0.98735 10.9729 0.95688 10.5286 1.05095C10.3135 1.09308 10.1194 1.1986 9.92102 1.28694C7.19306 2.53377 4.4651 3.78081 1.73714 5.02784C1.54918 5.1168 1.34408 5.18878 1.19755 5.34359C1.05959 5.48285 0.979797 5.68469 1.00837 5.88122C1.03184 6.06383 1.14082 6.22682 1.28449 6.33786C1.40184 6.43152 1.54225 6.48776 1.67735 6.55013C4.50898 7.84461 7.34082 9.13888 10.1725 10.4334C10.3618 10.5231 10.568 10.5741 10.7761 10.5941C11.1312 10.6266 11.5004 10.5867 11.8255 10.4334C14.722 9.10882 17.6194 7.78612 20.5157 6.46117C20.7657 6.3487 20.9841 6.11987 21 5.83398V5.76383C20.9851 5.5761 20.8849 5.40228 20.7398 5.2851C20.6084 5.17324 20.4441 5.11455 20.2904 5.04154C17.4822 3.7579 14.6739 2.47426 11.8657 1.19042ZM11.4727 1.97079C14.268 3.2487 17.0635 4.52661 19.8592 5.80371C17.0657 7.07917 14.2731 8.35586 11.4802 9.63213C11.3822 9.68367 11.2743 9.71393 11.1643 9.72579C10.9484 9.7489 10.7198 9.73438 10.5227 9.63541C7.72857 8.3579 4.93388 7.08142 2.14 5.8033C4.94449 4.52252 7.74816 3.24032 10.5527 1.95933C10.6849 1.89533 10.8337 1.87569 10.979 1.87201C11.1476 1.87079 11.3216 1.89124 11.4727 1.97079Z" fill="#999999" stroke="#999999" stroke-width="0.2"/>
<path d="M20.4604 9.13129C20.3449 9.08937 20.2142 9.09979 20.1044 9.15378C17.2638 10.4511 14.4238 11.7497 11.5834 13.0474C11.4702 13.0971 11.3608 13.1603 11.2365 13.1779C10.9981 13.2164 10.7412 13.207 10.5218 13.0971C7.6422 11.7806 4.76241 10.4646 1.88302 9.14765C1.75445 9.08609 1.5971 9.09039 1.47282 9.16053C1.32261 9.2411 1.22812 9.41677 1.24955 9.58712C1.26506 9.73967 1.36955 9.87587 1.50914 9.9362C4.39322 11.2544 7.27751 12.5724 10.1618 13.8904C10.4849 14.046 10.8528 14.0879 11.2073 14.0581C11.4236 14.0389 11.6381 13.9865 11.8344 13.892C14.6877 12.5875 17.5414 11.2838 20.3949 9.97955C20.4718 9.94376 20.5538 9.9135 20.6163 9.85378C20.7177 9.76053 20.7714 9.61677 20.7504 9.47975C20.7287 9.32106 20.611 9.18241 20.4604 9.13129Z" fill="#999999" stroke="#999999" stroke-width="0.2"/>
<path d="M20.4206 12.5814C20.3155 12.554 20.202 12.5685 20.1047 12.6157C17.2267 13.9302 14.349 15.2458 11.4712 16.5609C11.262 16.6683 11.0163 16.6781 10.7875 16.6454C10.6434 16.627 10.5161 16.5546 10.3853 16.4969C7.55038 15.201 4.71508 13.9053 1.88018 12.6088C1.77345 12.5587 1.64712 12.5523 1.5363 12.5934C1.38936 12.645 1.2761 12.7803 1.25202 12.9345C1.22692 13.0818 1.28773 13.2394 1.40365 13.3329C1.45406 13.3756 1.5159 13.4006 1.57487 13.4284C4.30243 14.6752 7.03039 15.9214 9.75794 17.1683C10.0349 17.2871 10.3004 17.4452 10.6018 17.494C11.0192 17.566 11.4657 17.5345 11.8494 17.345C14.7355 16.0264 17.6218 14.7084 20.5079 13.3897C20.6688 13.3147 20.7739 13.1337 20.752 12.9562C20.7345 12.7775 20.5939 12.6227 20.4206 12.5814Z" fill="#999999" stroke="#999999" stroke-width="0.2"/>
</svg>
