<svg width="14" height="22" viewBox="0 0 14 22" fill="none" xmlns="http://www.w3.org/2000/svg">
<path d="M8.74344 15.577L12.1 10.1798C12.111 10.1624 12.1202 10.144 12.1273 10.125C12.7069 9.17977 13.013 8.10002 13.013 6.99765C13.013 3.69055 10.3224 1 7.01534 1C3.70823 1 1.01746 3.69055 1.01746 6.99765C1.01746 8.10024 1.32395 9.18044 1.90401 10.1263C1.91073 10.1429 1.91857 10.159 1.92797 10.1747L5.1641 15.5905C2.65198 15.9455 1 16.9785 1 18.2315C1 19.7841 3.63838 21 7.00638 21C10.3744 21 13.0128 19.7839 13.0128 18.2315C13.013 16.9727 11.284 15.9167 8.74344 15.577ZM2.50691 9.82386C1.97185 8.97224 1.68909 7.99502 1.68909 6.99765C1.68909 4.06084 4.0783 1.67163 7.01534 1.67163C9.95215 1.67163 12.3414 4.06084 12.3414 6.99765C12.3414 7.99547 12.0586 8.97269 11.5238 9.82386C11.5126 9.84177 11.5034 9.86036 11.496 9.87961L7.9498 15.5811C7.89651 15.6628 7.88599 15.6814 7.82084 15.7884L6.92534 17.2284L2.53691 9.88431C2.52908 9.86349 2.519 9.84312 2.50691 9.82386ZM7.0066 20.3284C3.86271 20.3284 1.67185 19.2231 1.67185 18.2315C1.67185 17.3316 3.32182 16.4835 5.54111 16.2209L6.63139 18.0457C6.69161 18.1462 6.79952 18.2083 6.91661 18.2092C6.9175 18.2092 6.91862 18.2092 6.91952 18.2092C7.03548 18.2092 7.14339 18.1492 7.20473 18.0507L8.35098 16.2077C10.6056 16.452 12.3411 17.3215 12.3411 18.2315C12.3414 19.2233 10.1505 20.3284 7.0066 20.3284Z" fill="#999999" stroke="#999999" stroke-width="0.2"/>
<path d="M9.18773 6.99719C9.18773 5.79475 8.20939 4.81641 7.00695 4.81641C5.80451 4.81641 4.82617 5.79475 4.82617 6.99719C4.82617 8.19963 5.80451 9.17797 7.00695 9.17797C8.20939 9.17797 9.18773 8.19963 9.18773 6.99719ZM5.4978 6.99719C5.4978 6.16504 6.1748 5.48804 7.00695 5.48804C7.8391 5.48804 8.5161 6.16504 8.5161 6.99719C8.5161 7.82934 7.83932 8.50634 7.00695 8.50634C6.17458 8.50634 5.4978 7.82934 5.4978 6.99719Z" fill="#999999" stroke="#999999" stroke-width="0.2"/>
</svg>
