<svg width="40" height="40" viewBox="0 0 40 40" fill="none" xmlns="http://www.w3.org/2000/svg">
<g opacity="0.8">
<path d="M20 0C16.0444 0 12.1776 1.17298 8.8886 3.37061C5.59962 5.56823 3.03617 8.69181 1.52242 12.3463C0.00866566 16.0009 -0.387401 20.0222 0.384303 23.9018C1.15601 27.7814 3.06082 31.3451 5.85787 34.1421C8.65492 36.9392 12.2186 38.844 16.0982 39.6157C19.9778 40.3874 23.9991 39.9913 27.6537 38.4776C31.3082 36.9638 34.4318 34.4004 36.6294 31.1114C38.827 27.8224 40 23.9556 40 20C40 14.6957 37.8929 9.60859 34.1421 5.85786C30.3914 2.10714 25.3043 0 20 0ZM20 37.1428C16.6095 37.1428 13.2951 36.1374 10.4759 34.2538C7.65682 32.3701 5.45958 29.6927 4.16207 26.5603C2.86457 23.4278 2.52509 19.981 3.18655 16.6556C3.84801 13.3302 5.48071 10.2756 7.87818 7.87817C10.2756 5.4807 13.3302 3.848 16.6556 3.18654C19.981 2.52508 23.4278 2.86456 26.5603 4.16206C29.6927 5.45957 32.3701 7.65681 34.2538 10.4759C36.1374 13.2951 37.1429 16.6095 37.1429 20C37.1429 24.5466 35.3367 28.9069 32.1218 32.1218C28.9069 35.3367 24.5466 37.1428 20 37.1428Z" fill="white"/>
<path d="M29.2842 18.7567L16.427 11.3281C16.2095 11.2025 15.9626 11.1365 15.7113 11.1367C15.4601 11.137 15.2133 11.2035 14.996 11.3295C14.7787 11.4556 14.5984 11.6367 14.4734 11.8547C14.3485 12.0727 14.2832 12.3197 14.2842 12.571V27.4281C14.2832 27.6794 14.3485 27.9264 14.4734 28.1444C14.5984 28.3624 14.7787 28.5435 14.996 28.6696C15.2133 28.7956 15.4601 28.8621 15.7113 28.8624C15.9626 28.8626 16.2095 28.7966 16.427 28.671L29.2842 21.2424C29.5007 21.1168 29.6804 20.9366 29.8053 20.7197C29.9302 20.5028 29.9959 20.257 29.9959 20.0067C29.9959 19.7564 29.9302 19.5105 29.8053 19.2937C29.6804 19.0768 29.5007 18.8966 29.2842 18.771V18.7567ZM17.1413 24.9424V15.0567L25.7128 19.9995L17.1413 24.9424Z" fill="white"/>
</g>
</svg>
