<svg width="91" height="13" viewBox="0 0 91 13" fill="none" xmlns="http://www.w3.org/2000/svg">
<g clip-path="url(#clip0)">
<path d="M83.477 0.111309C83.6473 -0.036274 83.9362 -0.0276266 84.0901 0.140422C84.1578 0.223726 84.195 0.326342 84.2443 0.420888C84.8384 1.62231 85.4267 2.82718 86.0257 4.0263C87.3597 4.21885 88.6934 4.41428 90.0271 4.60683C90.1767 4.62816 90.3468 4.63738 90.4555 4.75701C90.618 4.9141 90.6128 5.19889 90.4483 5.35253C89.4388 6.33661 88.4305 7.32213 87.4199 8.30506C87.4773 8.73743 87.5649 9.16577 87.6341 9.59641C87.769 10.3839 87.9042 11.1714 88.0391 11.9589C88.0693 12.1278 88.0915 12.2984 88.1351 12.4648C88.2011 12.6876 88.0313 12.9412 87.8036 12.9753C87.709 12.9879 87.6093 12.9807 87.5234 12.9363C86.2712 12.2803 85.0223 11.6179 83.769 10.9641C82.5978 11.5747 81.431 12.1932 80.2616 12.8069C80.1045 12.8847 79.9488 13.0075 79.7623 12.9773C79.5294 12.9548 79.3599 12.7086 79.4104 12.4821C79.6225 11.2239 79.8416 9.96681 80.0555 8.70918C80.0782 8.57457 80.1076 8.4414 80.118 8.30506C79.1163 7.33251 78.1199 6.35448 77.1182 5.38193C77.0245 5.29603 76.9562 5.17439 76.9628 5.0441C76.9603 4.8406 77.1286 4.65641 77.3301 4.63393C78.7238 4.43071 80.118 4.22807 81.5123 4.0263C82.1173 2.8145 82.7122 1.59694 83.3124 0.382263C83.3611 0.28887 83.3968 0.183659 83.477 0.111309ZM82.1594 4.61836C82.0948 4.7426 81.9625 4.81552 81.8265 4.8308C80.6487 5 79.4715 5.17353 78.2937 5.34244C78.6307 5.69324 78.9892 6.02299 79.3346 6.36543C79.8381 6.86151 80.3477 7.35124 80.8519 7.84674C80.943 7.9312 81.0032 8.0537 80.9986 8.17938C80.8 9.38253 80.5795 10.5825 80.3875 11.7865C81.4566 11.2322 82.5188 10.6638 83.5871 10.1078C83.7148 10.0394 83.8673 10.0562 83.9901 10.1265C85.0436 10.6796 86.0946 11.2377 87.1504 11.7865C87.1023 11.4291 87.0302 11.0748 86.9728 10.7188C86.8293 9.88033 86.6855 9.04182 86.5416 8.20331C86.5154 8.01248 86.6569 7.86288 86.7881 7.74643C87.1761 7.36565 87.5678 6.98891 87.9558 6.60785C88.3821 6.18297 88.8248 5.77424 89.2442 5.34273C88.0665 5.17353 86.8893 5 85.7112 4.83051C85.5754 4.81552 85.4428 4.74231 85.3785 4.61836C84.8361 3.53916 84.3152 2.44843 83.769 1.37095C83.2224 2.44843 82.7019 3.53916 82.1594 4.61836Z" fill="#FFA800"/>
</g>
<g clip-path="url(#clip1)">
<path d="M64.1544 0.227968C64.2755 -0.0303022 64.6701 -0.064892 64.8552 0.140341C64.9105 0.206061 64.9425 0.287059 64.9811 0.362869C65.5833 1.58447 66.1843 2.80664 66.789 4.02679C68.1323 4.21877 69.4746 4.41737 70.8176 4.61021C70.9594 4.62923 71.1182 4.64393 71.2203 4.75693C71.3831 4.91373 71.378 5.19881 71.2134 5.35245C70.216 6.325 69.2193 7.29841 68.2213 8.2701C68.1709 8.30353 68.1905 8.36608 68.196 8.41566C68.4266 9.73728 68.6454 11.0609 68.88 12.3817C68.9509 12.5592 68.9068 12.7774 68.7497 12.8945C68.6165 13.0028 68.4179 13.0063 68.2695 12.9276C67.0248 12.2718 65.7799 11.6164 64.5341 10.9626C63.3514 11.5826 62.1704 12.2056 60.9886 12.827C60.8526 12.8959 60.7171 12.9968 60.5557 12.9795C60.3109 12.9743 60.1216 12.7181 60.1758 12.4811C60.4061 11.1163 60.6436 9.75198 60.8759 8.38741C60.8831 8.34533 60.8872 8.2969 60.8468 8.2701C59.8578 7.3085 58.8729 6.34316 57.8833 5.38214C57.7893 5.29624 57.7216 5.1746 57.728 5.04431C57.7251 4.84052 57.894 4.65633 58.0952 4.63356C59.4897 4.43121 60.884 4.22684 62.2788 4.02679C62.9066 2.76167 63.5278 1.49338 64.1544 0.227968ZM64.6211 1.55132C64.6329 2.74438 64.6231 3.93772 64.6263 5.13078C64.6278 6.77841 64.6234 8.42604 64.6283 10.0734C64.6713 10.0901 64.7139 10.1071 64.7552 10.1273C65.8093 10.6793 66.8602 11.237 67.9149 11.7873C67.9074 11.7178 67.8982 11.6487 67.8861 11.5801C67.6933 10.4625 67.5036 9.34469 67.3102 8.22744C67.284 8.08677 67.3482 7.94149 67.4514 7.84666C67.8483 7.45551 68.2496 7.06897 68.648 6.67954C69.0988 6.23016 69.5654 5.79664 70.0108 5.34207C68.8667 5.1795 67.7238 5.00972 66.5801 4.84571C66.446 4.82985 66.2979 4.80795 66.2033 4.70101C66.1076 4.58686 66.0606 4.44187 65.9906 4.31216C65.5308 3.39351 65.0901 2.46506 64.6211 1.55132Z" fill="#FFA800"/>
</g>
<g clip-path="url(#clip2)">
<path d="M44.9208 0.22797C45.0416 -0.0303003 45.4365 -0.0646018 45.6216 0.140343C45.668 0.194533 45.6968 0.261119 45.7288 0.324533C46.3364 1.5591 46.9452 2.79338 47.5551 4.02737C48.9477 4.2254 50.3393 4.43063 51.7313 4.63269C51.9356 4.65201 52.1095 4.83735 52.1066 5.04402C52.1129 5.17431 52.0452 5.29624 51.9512 5.38185C50.9617 6.34287 49.9764 7.3085 48.9877 8.2701C48.9376 8.30382 48.9566 8.36609 48.9624 8.41595C49.0993 9.20287 49.2322 9.99037 49.3682 10.7776C49.4677 11.3322 49.5492 11.8902 49.6611 12.4422C49.749 12.6889 49.5406 12.9818 49.2789 12.9804C49.1174 12.9962 48.9823 12.8962 48.8459 12.827C47.6644 12.205 46.4826 11.5835 45.3005 10.962C44.0549 11.6167 42.8097 12.2716 41.565 12.9273C41.3987 13.0196 41.1701 12.9928 41.0433 12.8466C40.943 12.7437 40.9185 12.5909 40.9456 12.4537C41.1759 11.1079 41.4059 9.76178 41.6386 8.41595C41.6437 8.36637 41.6636 8.30354 41.6129 8.2701C40.6196 7.3036 39.6289 6.33393 38.6353 5.36744C38.484 5.23369 38.4462 4.99012 38.5618 4.82207C38.6315 4.71138 38.7552 4.64365 38.8838 4.62952C40.2714 4.43034 41.6582 4.22425 43.0458 4.02737C43.6721 2.76138 44.2948 1.49396 44.9208 0.22797Z" fill="#FFA800"/>
</g>
<g clip-path="url(#clip3)">
<path d="M25.6865 0.22797C25.8072 -0.0303003 26.2021 -0.0646018 26.3872 0.140343C26.4336 0.194533 26.4624 0.261119 26.4944 0.324533C27.102 1.5591 27.7108 2.79338 28.3208 4.02737C29.7133 4.2254 31.105 4.43063 32.4969 4.63269C32.7013 4.65201 32.8751 4.83735 32.8722 5.04402C32.8785 5.17431 32.8108 5.29624 32.7168 5.38185C31.7273 6.34287 30.742 7.3085 29.7534 8.2701C29.7032 8.30382 29.7222 8.36609 29.728 8.41595C29.8649 9.20287 29.9978 9.99037 30.1338 10.7776C30.2333 11.3322 30.3149 11.8902 30.4267 12.4422C30.5146 12.6889 30.3062 12.9818 30.0445 12.9804C29.8831 12.9962 29.7479 12.8962 29.6115 12.827C28.43 12.205 27.2482 11.5835 26.0661 10.962C24.8206 11.6167 23.5753 12.2716 22.3307 12.9273C22.1644 13.0196 21.9358 12.9928 21.8089 12.8466C21.7086 12.7437 21.6841 12.5909 21.7112 12.4537C21.9415 11.1079 22.1716 9.76178 22.4042 8.41595C22.4094 8.36637 22.4293 8.30354 22.3785 8.2701C21.3852 7.3036 20.3945 6.33393 19.4009 5.36744C19.2496 5.23369 19.2118 4.99012 19.3274 4.82207C19.3972 4.71138 19.5208 4.64365 19.6494 4.62952C21.037 4.43034 22.4238 4.22425 23.8114 4.02737C24.4378 2.76138 25.0604 1.49396 25.6865 0.22797Z" fill="#FFA800"/>
</g>
<g clip-path="url(#clip4)">
<path d="M6.45208 0.22797C6.57286 -0.0303003 6.96776 -0.0646018 7.15282 0.140343C7.19922 0.194533 7.22805 0.261119 7.26004 0.324533C7.86767 1.5591 8.47645 2.79338 9.08639 4.02737C10.4789 4.2254 11.8706 4.43063 13.2625 4.63269C13.4669 4.65201 13.6407 4.83735 13.6378 5.04402C13.6442 5.17431 13.5764 5.29624 13.4825 5.38185C12.4929 6.34287 11.5077 7.3085 10.519 8.2701C10.4688 8.30382 10.4878 8.36609 10.4936 8.41595C10.6305 9.20287 10.7634 9.99037 10.8995 10.7776C10.9989 11.3322 11.0805 11.8902 11.1923 12.4422C11.2802 12.6889 11.0718 12.9818 10.8101 12.9804C10.6487 12.9962 10.5135 12.8962 10.3772 12.827C9.19563 12.205 8.01381 11.5835 6.83171 10.962C5.58619 11.6167 4.34095 12.2716 3.0963 12.9273C2.92998 13.0196 2.7014 12.9928 2.57457 12.8466C2.47426 12.7437 2.44976 12.5909 2.47685 12.4537C2.70716 11.1079 2.93718 9.76178 3.1698 8.41595C3.17499 8.36637 3.19488 8.30354 3.14415 8.2701C2.15084 7.3036 1.16013 6.33393 0.166541 5.36744C0.0152103 5.23369 -0.0225503 4.99012 0.0930373 4.82207C0.162793 4.71138 0.286452 4.64365 0.415011 4.62952C1.80264 4.43034 3.1894 4.22425 4.57703 4.02737C5.20339 2.76138 5.82601 1.49396 6.45208 0.22797Z" fill="#FFA800"/>
</g>
<defs>
<clipPath id="clip0">
<rect width="13.663" height="13" fill="white" transform="translate(76.9375)"/>
</clipPath>
<clipPath id="clip1">
<rect width="13.663" height="13" fill="white" transform="translate(57.7026)"/>
</clipPath>
<clipPath id="clip2">
<rect width="13.663" height="13" fill="white" transform="translate(38.4688)"/>
</clipPath>
<clipPath id="clip3">
<rect width="13.663" height="13" fill="white" transform="translate(19.2344)"/>
</clipPath>
<clipPath id="clip4">
<rect width="13.663" height="13" fill="white"/>
</clipPath>
</defs>
</svg>
